<svg class="rich-terminal" viewBox="0 0 1482 928.4" xmlns="http://www.w3.org/2000/svg">
    <!-- Generated with Rich https://www.textualize.io -->
    <style>

    @font-face {
        font-family: "Fira Code";
        src: local("FiraCode-Regular"),
                url("https://cdnjs.cloudflare.com/ajax/libs/firacode/6.2.0/woff2/FiraCode-Regular.woff2") format("woff2"),
                url("https://cdnjs.cloudflare.com/ajax/libs/firacode/6.2.0/woff/FiraCode-Regular.woff") format("woff");
        font-style: normal;
        font-weight: 400;
    }
    @font-face {
        font-family: "Fira Code";
        src: local("FiraCode-Bold"),
                url("https://cdnjs.cloudflare.com/ajax/libs/firacode/6.2.0/woff2/FiraCode-Bold.woff2") format("woff2"),
                url("https://cdnjs.cloudflare.com/ajax/libs/firacode/6.2.0/woff/FiraCode-Bold.woff") format("woff");
        font-style: bold;
        font-weight: 700;
    }

    .terminal-187467880-matrix {
        font-family: Fira Code, monospace;
        font-size: 20px;
        line-height: 24.4px;
        font-variant-east-asian: full-width;
    }

    .terminal-187467880-title {
        font-size: 18px;
        font-weight: bold;
        font-family: arial;
    }

    .terminal-187467880-r1 { fill: #c5c8c6 }
.terminal-187467880-r2 { fill: #cecece }
.terminal-187467880-r3 { fill: #efefef }
.terminal-187467880-r4 { fill: #e0e0e0 }
.terminal-187467880-r5 { fill: #050505 }
.terminal-187467880-r6 { fill: #6f6f6f }
    </style>

    <defs>
    <clipPath id="terminal-187467880-clip-terminal">
      <rect x="0" y="0" width="1463.0" height="877.4" />
    </clipPath>
    <clipPath id="terminal-187467880-line-0">
    <rect x="0" y="1.5" width="1464" height="24.65"/>
            </clipPath>
<clipPath id="terminal-187467880-line-1">
    <rect x="0" y="25.9" width="1464" height="24.65"/>
            </clipPath>
<clipPath id="terminal-187467880-line-2">
    <rect x="0" y="50.3" width="1464" height="24.65"/>
            </clipPath>
<clipPath id="terminal-187467880-line-3">
    <rect x="0" y="74.7" width="1464" height="24.65"/>
            </clipPath>
<clipPath id="terminal-187467880-line-4">
    <rect x="0" y="99.1" width="1464" height="24.65"/>
            </clipPath>
<clipPath id="terminal-187467880-line-5">
    <rect x="0" y="123.5" width="1464" height="24.65"/>
            </clipPath>
<clipPath id="terminal-187467880-line-6">
    <rect x="0" y="147.9" width="1464" height="24.65"/>
            </clipPath>
<clipPath id="terminal-187467880-line-7">
    <rect x="0" y="172.3" width="1464" height="24.65"/>
            </clipPath>
<clipPath id="terminal-187467880-line-8">
    <rect x="0" y="196.7" width="1464" height="24.65"/>
            </clipPath>
<clipPath id="terminal-187467880-line-9">
    <rect x="0" y="221.1" width="1464" height="24.65"/>
            </clipPath>
<clipPath id="terminal-187467880-line-10">
    <rect x="0" y="245.5" width="1464" height="24.65"/>
            </clipPath>
<clipPath id="terminal-187467880-line-11">
    <rect x="0" y="269.9" width="1464" height="24.65"/>
            </clipPath>
<clipPath id="terminal-187467880-line-12">
    <rect x="0" y="294.3" width="1464" height="24.65"/>
            </clipPath>
<clipPath id="terminal-187467880-line-13">
    <rect x="0" y="318.7" width="1464" height="24.65"/>
            </clipPath>
<clipPath id="terminal-187467880-line-14">
    <rect x="0" y="343.1" width="1464" height="24.65"/>
            </clipPath>
<clipPath id="terminal-187467880-line-15">
    <rect x="0" y="367.5" width="1464" height="24.65"/>
            </clipPath>
<clipPath id="terminal-187467880-line-16">
    <rect x="0" y="391.9" width="1464" height="24.65"/>
            </clipPath>
<clipPath id="terminal-187467880-line-17">
    <rect x="0" y="416.3" width="1464" height="24.65"/>
            </clipPath>
<clipPath id="terminal-187467880-line-18">
    <rect x="0" y="440.7" width="1464" height="24.65"/>
            </clipPath>
<clipPath id="terminal-187467880-line-19">
    <rect x="0" y="465.1" width="1464" height="24.65"/>
            </clipPath>
<clipPath id="terminal-187467880-line-20">
    <rect x="0" y="489.5" width="1464" height="24.65"/>
            </clipPath>
<clipPath id="terminal-187467880-line-21">
    <rect x="0" y="513.9" width="1464" height="24.65"/>
            </clipPath>
<clipPath id="terminal-187467880-line-22">
    <rect x="0" y="538.3" width="1464" height="24.65"/>
            </clipPath>
<clipPath id="terminal-187467880-line-23">
    <rect x="0" y="562.7" width="1464" height="24.65"/>
            </clipPath>
<clipPath id="terminal-187467880-line-24">
    <rect x="0" y="587.1" width="1464" height="24.65"/>
            </clipPath>
<clipPath id="terminal-187467880-line-25">
    <rect x="0" y="611.5" width="1464" height="24.65"/>
            </clipPath>
<clipPath id="terminal-187467880-line-26">
    <rect x="0" y="635.9" width="1464" height="24.65"/>
            </clipPath>
<clipPath id="terminal-187467880-line-27">
    <rect x="0" y="660.3" width="1464" height="24.65"/>
            </clipPath>
<clipPath id="terminal-187467880-line-28">
    <rect x="0" y="684.7" width="1464" height="24.65"/>
            </clipPath>
<clipPath id="terminal-187467880-line-29">
    <rect x="0" y="709.1" width="1464" height="24.65"/>
            </clipPath>
<clipPath id="terminal-187467880-line-30">
    <rect x="0" y="733.5" width="1464" height="24.65"/>
            </clipPath>
<clipPath id="terminal-187467880-line-31">
    <rect x="0" y="757.9" width="1464" height="24.65"/>
            </clipPath>
<clipPath id="terminal-187467880-line-32">
    <rect x="0" y="782.3" width="1464" height="24.65"/>
            </clipPath>
<clipPath id="terminal-187467880-line-33">
    <rect x="0" y="806.7" width="1464" height="24.65"/>
            </clipPath>
<clipPath id="terminal-187467880-line-34">
    <rect x="0" y="831.1" width="1464" height="24.65"/>
            </clipPath>
    </defs>

    <rect fill="#292929" stroke="rgba(255,255,255,0.35)" stroke-width="1" x="1" y="1" width="1480" height="926.4" rx="8"/><text class="terminal-187467880-title" fill="#c5c8c6" text-anchor="middle" x="740" y="27">after-ctrl-x.svg&#160;-&#160;02-jbrowse-batman-high-contrast.tcss</text>
            <g transform="translate(26,22)">
            <circle cx="0" cy="0" r="7" fill="#ff5f57"/>
            <circle cx="22" cy="0" r="7" fill="#febc2e"/>
            <circle cx="44" cy="0" r="7" fill="#28c840"/>
            </g>
        
    <g transform="translate(9, 41)" clip-path="url(#terminal-187467880-clip-terminal)">
    <rect fill="#111111" x="0" y="1.5" width="12.2" height="24.65" shape-rendering="crispEdges"/><rect fill="#111111" x="12.2" y="1.5" width="1134.6" height="24.65" shape-rendering="crispEdges"/><rect fill="#111111" x="1146.8" y="1.5" width="12.2" height="24.65" shape-rendering="crispEdges"/><rect fill="#050505" x="1159" y="1.5" width="305" height="24.65" shape-rendering="crispEdges"/><rect fill="#1d1d1d" x="0" y="25.9" width="12.2" height="24.65" shape-rendering="crispEdges"/><rect fill="#1d1d1d" x="12.2" y="25.9" width="1439.6" height="24.65" shape-rendering="crispEdges"/><rect fill="#1d1d1d" x="1451.8" y="25.9" width="12.2" height="24.65" shape-rendering="crispEdges"/><rect fill="#050505" x="0" y="50.3" width="12.2" height="24.65" shape-rendering="crispEdges"/><rect fill="#050505" x="12.2" y="50.3" width="1000.4" height="24.65" shape-rendering="crispEdges"/><rect fill="#050505" x="1012.6" y="50.3" width="439.2" height="24.65" shape-rendering="crispEdges"/><rect fill="#050505" x="1451.8" y="50.3" width="12.2" height="24.65" shape-rendering="crispEdges"/><rect fill="#050505" x="0" y="74.7" width="12.2" height="24.65" shape-rendering="crispEdges"/><rect fill="#050505" x="12.2" y="74.7" width="805.2" height="24.65" shape-rendering="crispEdges"/><rect fill="#050505" x="817.4" y="74.7" width="634.4" height="24.65" shape-rendering="crispEdges"/><rect fill="#050505" x="1451.8" y="74.7" width="12.2" height="24.65" shape-rendering="crispEdges"/><rect fill="#050505" x="0" y="99.1" width="12.2" height="24.65" shape-rendering="crispEdges"/><rect fill="#050505" x="12.2" y="99.1" width="939.4" height="24.65" shape-rendering="crispEdges"/><rect fill="#050505" x="951.6" y="99.1" width="500.2" height="24.65" shape-rendering="crispEdges"/><rect fill="#050505" x="1451.8" y="99.1" width="12.2" height="24.65" shape-rendering="crispEdges"/><rect fill="#050505" x="0" y="123.5" width="12.2" height="24.65" shape-rendering="crispEdges"/><rect fill="#050505" x="12.2" y="123.5" width="1146.8" height="24.65" shape-rendering="crispEdges"/><rect fill="#050505" x="1159" y="123.5" width="292.8" height="24.65" shape-rendering="crispEdges"/><rect fill="#050505" x="1451.8" y="123.5" width="12.2" height="24.65" shape-rendering="crispEdges"/><rect fill="#050505" x="0" y="147.9" width="12.2" height="24.65" shape-rendering="crispEdges"/><rect fill="#050505" x="12.2" y="147.9" width="1024.8" height="24.65" shape-rendering="crispEdges"/><rect fill="#050505" x="1037" y="147.9" width="414.8" height="24.65" shape-rendering="crispEdges"/><rect fill="#050505" x="1451.8" y="147.9" width="12.2" height="24.65" shape-rendering="crispEdges"/><rect fill="#050505" x="0" y="172.3" width="12.2" height="24.65" shape-rendering="crispEdges"/><rect fill="#050505" x="12.2" y="172.3" width="1110.2" height="24.65" shape-rendering="crispEdges"/><rect fill="#050505" x="1122.4" y="172.3" width="329.4" height="24.65" shape-rendering="crispEdges"/><rect fill="#050505" x="1451.8" y="172.3" width="12.2" height="24.65" shape-rendering="crispEdges"/><rect fill="#050505" x="0" y="196.7" width="12.2" height="24.65" shape-rendering="crispEdges"/><rect fill="#050505" x="12.2" y="196.7" width="1281" height="24.65" shape-rendering="crispEdges"/><rect fill="#050505" x="1293.2" y="196.7" width="158.6" height="24.65" shape-rendering="crispEdges"/><rect fill="#050505" x="1451.8" y="196.7" width="12.2" height="24.65" shape-rendering="crispEdges"/><rect fill="#050505" x="0" y="221.1" width="12.2" height="24.65" shape-rendering="crispEdges"/><rect fill="#050505" x="12.2" y="221.1" width="1183.4" height="24.65" shape-rendering="crispEdges"/><rect fill="#050505" x="1195.6" y="221.1" width="256.2" height="24.65" shape-rendering="crispEdges"/><rect fill="#050505" x="1451.8" y="221.1" width="12.2" height="24.65" shape-rendering="crispEdges"/><rect fill="#050505" x="0" y="245.5" width="12.2" height="24.65" shape-rendering="crispEdges"/><rect fill="#050505" x="12.2" y="245.5" width="1281" height="24.65" shape-rendering="crispEdges"/><rect fill="#050505" x="1293.2" y="245.5" width="158.6" height="24.65" shape-rendering="crispEdges"/><rect fill="#050505" x="1451.8" y="245.5" width="12.2" height="24.65" shape-rendering="crispEdges"/><rect fill="#050505" x="0" y="269.9" width="12.2" height="24.65" shape-rendering="crispEdges"/><rect fill="#050505" x="12.2" y="269.9" width="634.4" height="24.65" shape-rendering="crispEdges"/><rect fill="#050505" x="646.6" y="269.9" width="805.2" height="24.65" shape-rendering="crispEdges"/><rect fill="#050505" x="1451.8" y="269.9" width="12.2" height="24.65" shape-rendering="crispEdges"/><rect fill="#050505" x="0" y="294.3" width="12.2" height="24.65" shape-rendering="crispEdges"/><rect fill="#050505" x="12.2" y="294.3" width="427" height="24.65" shape-rendering="crispEdges"/><rect fill="#050505" x="439.2" y="294.3" width="1012.6" height="24.65" shape-rendering="crispEdges"/><rect fill="#050505" x="1451.8" y="294.3" width="12.2" height="24.65" shape-rendering="crispEdges"/><rect fill="#050505" x="0" y="318.7" width="12.2" height="24.65" shape-rendering="crispEdges"/><rect fill="#050505" x="12.2" y="318.7" width="1183.4" height="24.65" shape-rendering="crispEdges"/><rect fill="#050505" x="1195.6" y="318.7" width="256.2" height="24.65" shape-rendering="crispEdges"/><rect fill="#050505" x="1451.8" y="318.7" width="12.2" height="24.65" shape-rendering="crispEdges"/><rect fill="#050505" x="0" y="343.1" width="12.2" height="24.65" shape-rendering="crispEdges"/><rect fill="#050505" x="12.2" y="343.1" width="1268.8" height="24.65" shape-rendering="crispEdges"/><rect fill="#050505" x="1281" y="343.1" width="170.8" height="24.65" shape-rendering="crispEdges"/><rect fill="#050505" x="1451.8" y="343.1" width="12.2" height="24.65" shape-rendering="crispEdges"/><rect fill="#050505" x="0" y="367.5" width="12.2" height="24.65" shape-rendering="crispEdges"/><rect fill="#050505" x="12.2" y="367.5" width="1378.6" height="24.65" shape-rendering="crispEdges"/><rect fill="#050505" x="1390.8" y="367.5" width="61" height="24.65" shape-rendering="crispEdges"/><rect fill="#050505" x="1451.8" y="367.5" width="12.2" height="24.65" shape-rendering="crispEdges"/><rect fill="#050505" x="0" y="391.9" width="12.2" height="24.65" shape-rendering="crispEdges"/><rect fill="#050505" x="12.2" y="391.9" width="1085.8" height="24.65" shape-rendering="crispEdges"/><rect fill="#050505" x="1098" y="391.9" width="353.8" height="24.65" shape-rendering="crispEdges"/><rect fill="#050505" x="1451.8" y="391.9" width="12.2" height="24.65" shape-rendering="crispEdges"/><rect fill="#050505" x="0" y="416.3" width="12.2" height="24.65" shape-rendering="crispEdges"/><rect fill="#050505" x="12.2" y="416.3" width="1000.4" height="24.65" shape-rendering="crispEdges"/><rect fill="#050505" x="1012.6" y="416.3" width="439.2" height="24.65" shape-rendering="crispEdges"/><rect fill="#050505" x="1451.8" y="416.3" width="12.2" height="24.65" shape-rendering="crispEdges"/><rect fill="#050505" x="0" y="440.7" width="12.2" height="24.65" shape-rendering="crispEdges"/><rect fill="#050505" x="12.2" y="440.7" width="1171.2" height="24.65" shape-rendering="crispEdges"/><rect fill="#050505" x="1183.4" y="440.7" width="268.4" height="24.65" shape-rendering="crispEdges"/><rect fill="#050505" x="1451.8" y="440.7" width="12.2" height="24.65" shape-rendering="crispEdges"/><rect fill="#050505" x="0" y="465.1" width="12.2" height="24.65" shape-rendering="crispEdges"/><rect fill="#050505" x="12.2" y="465.1" width="1037" height="24.65" shape-rendering="crispEdges"/><rect fill="#050505" x="1049.2" y="465.1" width="402.6" height="24.65" shape-rendering="crispEdges"/><rect fill="#050505" x="1451.8" y="465.1" width="12.2" height="24.65" shape-rendering="crispEdges"/><rect fill="#050505" x="0" y="489.5" width="12.2" height="24.65" shape-rendering="crispEdges"/><rect fill="#050505" x="12.2" y="489.5" width="1317.6" height="24.65" shape-rendering="crispEdges"/><rect fill="#050505" x="1329.8" y="489.5" width="122" height="24.65" shape-rendering="crispEdges"/><rect fill="#050505" x="1451.8" y="489.5" width="12.2" height="24.65" shape-rendering="crispEdges"/><rect fill="#050505" x="0" y="513.9" width="12.2" height="24.65" shape-rendering="crispEdges"/><rect fill="#e0e0e0" x="12.2" y="513.9" width="1268.8" height="24.65" shape-rendering="crispEdges"/><rect fill="#050505" x="1281" y="513.9" width="170.8" height="24.65" shape-rendering="crispEdges"/><rect fill="#050505" x="1451.8" y="513.9" width="12.2" height="24.65" shape-rendering="crispEdges"/><rect fill="#050505" x="0" y="538.3" width="12.2" height="24.65" shape-rendering="crispEdges"/><rect fill="#050505" x="12.2" y="538.3" width="549" height="24.65" shape-rendering="crispEdges"/><rect fill="#050505" x="561.2" y="538.3" width="890.6" height="24.65" shape-rendering="crispEdges"/><rect fill="#050505" x="1451.8" y="538.3" width="12.2" height="24.65" shape-rendering="crispEdges"/><rect fill="#050505" x="0" y="562.7" width="12.2" height="24.65" shape-rendering="crispEdges"/><rect fill="#050505" x="12.2" y="562.7" width="1220" height="24.65" shape-rendering="crispEdges"/><rect fill="#050505" x="1232.2" y="562.7" width="219.6" height="24.65" shape-rendering="crispEdges"/><rect fill="#050505" x="1451.8" y="562.7" width="12.2" height="24.65" shape-rendering="crispEdges"/><rect fill="#050505" x="0" y="587.1" width="12.2" height="24.65" shape-rendering="crispEdges"/><rect fill="#050505" x="12.2" y="587.1" width="1195.6" height="24.65" shape-rendering="crispEdges"/><rect fill="#050505" x="1207.8" y="587.1" width="244" height="24.65" shape-rendering="crispEdges"/><rect fill="#050505" x="1451.8" y="587.1" width="12.2" height="24.65" shape-rendering="crispEdges"/><rect fill="#050505" x="0" y="611.5" width="12.2" height="24.65" shape-rendering="crispEdges"/><rect fill="#050505" x="12.2" y="611.5" width="1342" height="24.65" shape-rendering="crispEdges"/><rect fill="#050505" x="1354.2" y="611.5" width="97.6" height="24.65" shape-rendering="crispEdges"/><rect fill="#050505" x="1451.8" y="611.5" width="12.2" height="24.65" shape-rendering="crispEdges"/><rect fill="#050505" x="0" y="635.9" width="12.2" height="24.65" shape-rendering="crispEdges"/><rect fill="#050505" x="12.2" y="635.9" width="1207.8" height="24.65" shape-rendering="crispEdges"/><rect fill="#050505" x="1220" y="635.9" width="231.8" height="24.65" shape-rendering="crispEdges"/><rect fill="#050505" x="1451.8" y="635.9" width="12.2" height="24.65" shape-rendering="crispEdges"/><rect fill="#050505" x="0" y="660.3" width="12.2" height="24.65" shape-rendering="crispEdges"/><rect fill="#050505" x="12.2" y="660.3" width="524.6" height="24.65" shape-rendering="crispEdges"/><rect fill="#050505" x="536.8" y="660.3" width="915" height="24.65" shape-rendering="crispEdges"/><rect fill="#050505" x="1451.8" y="660.3" width="12.2" height="24.65" shape-rendering="crispEdges"/><rect fill="#050505" x="0" y="684.7" width="12.2" height="24.65" shape-rendering="crispEdges"/><rect fill="#050505" x="12.2" y="684.7" width="1073.6" height="24.65" shape-rendering="crispEdges"/><rect fill="#050505" x="1085.8" y="684.7" width="366" height="24.65" shape-rendering="crispEdges"/><rect fill="#050505" x="1451.8" y="684.7" width="12.2" height="24.65" shape-rendering="crispEdges"/><rect fill="#050505" x="0" y="709.1" width="12.2" height="24.65" shape-rendering="crispEdges"/><rect fill="#050505" x="12.2" y="709.1" width="963.8" height="24.65" shape-rendering="crispEdges"/><rect fill="#050505" x="976" y="709.1" width="475.8" height="24.65" shape-rendering="crispEdges"/><rect fill="#050505" x="1451.8" y="709.1" width="12.2" height="24.65" shape-rendering="crispEdges"/><rect fill="#050505" x="0" y="733.5" width="12.2" height="24.65" shape-rendering="crispEdges"/><rect fill="#050505" x="12.2" y="733.5" width="500.2" height="24.65" shape-rendering="crispEdges"/><rect fill="#050505" x="512.4" y="733.5" width="939.4" height="24.65" shape-rendering="crispEdges"/><rect fill="#050505" x="1451.8" y="733.5" width="12.2" height="24.65" shape-rendering="crispEdges"/><rect fill="#050505" x="0" y="757.9" width="12.2" height="24.65" shape-rendering="crispEdges"/><rect fill="#050505" x="12.2" y="757.9" width="1183.4" height="24.65" shape-rendering="crispEdges"/><rect fill="#050505" x="1195.6" y="757.9" width="256.2" height="24.65" shape-rendering="crispEdges"/><rect fill="#050505" x="1451.8" y="757.9" width="12.2" height="24.65" shape-rendering="crispEdges"/><rect fill="#050505" x="0" y="782.3" width="12.2" height="24.65" shape-rendering="crispEdges"/><rect fill="#050505" x="12.2" y="782.3" width="1122.4" height="24.65" shape-rendering="crispEdges"/><rect fill="#050505" x="1134.6" y="782.3" width="317.2" height="24.65" shape-rendering="crispEdges"/><rect fill="#050505" x="1451.8" y="782.3" width="12.2" height="24.65" shape-rendering="crispEdges"/><rect fill="#050505" x="0" y="806.7" width="12.2" height="24.65" shape-rendering="crispEdges"/><rect fill="#050505" x="12.2" y="806.7" width="1134.6" height="24.65" shape-rendering="crispEdges"/><rect fill="#050505" x="1146.8" y="806.7" width="305" height="24.65" shape-rendering="crispEdges"/><rect fill="#050505" x="1451.8" y="806.7" width="12.2" height="24.65" shape-rendering="crispEdges"/><rect fill="#050505" x="0" y="831.1" width="12.2" height="24.65" shape-rendering="crispEdges"/><rect fill="#050505" x="12.2" y="831.1" width="671" height="24.65" shape-rendering="crispEdges"/><rect fill="#050505" x="683.2" y="831.1" width="768.6" height="24.65" shape-rendering="crispEdges"/><rect fill="#050505" x="1451.8" y="831.1" width="12.2" height="24.65" shape-rendering="crispEdges"/><rect fill="#050505" x="0" y="855.5" width="12.2" height="24.65" shape-rendering="crispEdges"/><rect fill="#050505" x="12.2" y="855.5" width="524.6" height="24.65" shape-rendering="crispEdges"/><rect fill="#050505" x="536.8" y="855.5" width="12.2" height="24.65" shape-rendering="crispEdges"/><rect fill="#050505" x="549" y="855.5" width="915" height="24.65" shape-rendering="crispEdges"/>
    <g class="terminal-187467880-matrix">
    <text class="terminal-187467880-r2" x="12.2" y="20" textLength="1134.6" clip-path="url(#terminal-187467880-line-0)">sort:&#160;recently&#160;added&#160;↓&#160;|&#160;5000&#160;loaded&#160;|&#160;5000&#160;matched&#160;|&#160;showing&#160;5000&#160;|&#160;display:&#160;title&#160;|&#160;F1&#160;help</text><text class="terminal-187467880-r1" x="1464" y="20" textLength="12.2" clip-path="url(#terminal-187467880-line-0)">
</text><text class="terminal-187467880-r1" x="1464" y="44.4" textLength="12.2" clip-path="url(#terminal-187467880-line-1)">
</text><text class="terminal-187467880-r4" x="12.2" y="68.8" textLength="1000.4" clip-path="url(#terminal-187467880-line-2)">Noir&#160;Laundromat&#160;Honeymoon&#160;-&#160;S01E15&#160;-&#160;The&#160;Very&#160;Polite&#160;A&#160;Flirty&#160;Fire&#160;Drill:&#160;Part&#160;One</text><text class="terminal-187467880-r1" x="1464" y="68.8" textLength="12.2" clip-path="url(#terminal-187467880-line-2)">
</text><text class="terminal-187467880-r4" x="12.2" y="93.2" textLength="805.2" clip-path="url(#terminal-187467880-line-3)">Mildly&#160;Spicy&#160;Romance&#160;Of&#160;The&#160;Extension&#160;Cord:&#160;The&#160;Search&#160;For&#160;Parking</text><text class="terminal-187467880-r1" x="1464" y="93.2" textLength="12.2" clip-path="url(#terminal-187467880-line-3)">
</text><text class="terminal-187467880-r4" x="12.2" y="117.6" textLength="939.4" clip-path="url(#terminal-187467880-line-4)">Twelve&#160;Angry&#160;Hamsters&#160;-&#160;S05E02&#160;-&#160;The&#160;Soft&#160;Launch&#160;Of&#160;The&#160;Basement&#160;With&#160;Dimples</text><text class="terminal-187467880-r1" x="1464" y="117.6" textLength="12.2" clip-path="url(#terminal-187467880-line-4)">
</text><text class="terminal-187467880-r4" x="12.2" y="142" textLength="1146.8" clip-path="url(#terminal-187467880-line-5)">Minivan&#160;To&#160;The&#160;Phantom&#160;Zone&#160;-&#160;S02E16&#160;-&#160;The&#160;Mildly&#160;Spicy&#160;The&#160;Dampest&#160;Crown:&#160;Director&#x27;s&#160;Sandwich</text><text class="terminal-187467880-r1" x="1464" y="142" textLength="12.2" clip-path="url(#terminal-187467880-line-5)">
</text><text class="terminal-187467880-r4" x="12.2" y="166.4" textLength="1024.8" clip-path="url(#terminal-187467880-line-6)">Witchcraft&#160;For&#160;Office&#160;Managers&#160;-&#160;S03E05&#160;-&#160;Please&#160;Do&#160;Not&#160;A&#160;Coupon&#160;Too&#160;Far:&#160;Not&#160;A&#160;Date</text><text class="terminal-187467880-r1" x="1464" y="166.4" textLength="12.2" clip-path="url(#terminal-187467880-line-6)">
</text><text class="terminal-187467880-r4" x="12.2" y="190.8" textLength="1110.2" clip-path="url(#terminal-187467880-line-7)">The&#160;Airship&#160;Of&#160;Questionable&#160;Choices&#160;-&#160;S05E13&#160;-&#160;Please&#160;Do&#160;Not&#160;A&#160;Very&#160;Nervous&#160;Laser:&#160;Part&#160;Two</text><text class="terminal-187467880-r1" x="1464" y="190.8" textLength="12.2" clip-path="url(#terminal-187467880-line-7)">
</text><text class="terminal-187467880-r4" x="12.2" y="215.2" textLength="1281" clip-path="url(#terminal-187467880-line-8)">Snack&#160;Rodeo&#160;In&#160;The&#160;Vacuum&#160;West&#160;-&#160;S05E12&#160;-&#160;The&#160;Emotionally&#160;Available&#160;A&#160;Flirty&#160;Fire&#160;Drill:&#160;Before&#160;The&#160;Siren</text><text class="terminal-187467880-r1" x="1464" y="215.2" textLength="12.2" clip-path="url(#terminal-187467880-line-8)">
</text><text class="terminal-187467880-r4" x="12.2" y="239.6" textLength="1183.4" clip-path="url(#terminal-187467880-line-9)">Emergency&#160;Ferret&#160;Broadcast&#160;System&#160;-&#160;S03E10&#160;-&#160;The&#160;Last&#160;Known&#160;The&#160;Spreadsheet&#160;That&#160;Winked:&#160;Part&#160;One</text><text class="terminal-187467880-r1" x="1464" y="239.6" textLength="12.2" clip-path="url(#terminal-187467880-line-9)">
</text><text class="terminal-187467880-r4" x="12.2" y="264" textLength="1281" clip-path="url(#terminal-187467880-line-10)">Suburban&#160;Weather&#160;Balloon&#160;War&#160;-&#160;S02E22&#160;-&#160;The&#160;Legal&#160;Status&#160;Of&#160;A&#160;Forbidden&#160;Basement,&#160;Technically:&#160;No&#160;Refunds</text><text class="terminal-187467880-r1" x="1464" y="264" textLength="12.2" clip-path="url(#terminal-187467880-line-10)">
</text><text class="terminal-187467880-r4" x="12.2" y="288.4" textLength="634.4" clip-path="url(#terminal-187467880-line-11)">Questionable&#160;The&#160;Raccoon&#160;In&#160;The&#160;Boardroom:&#160;Mild&#160;Heat</text><text class="terminal-187467880-r1" x="1464" y="288.4" textLength="12.2" clip-path="url(#terminal-187467880-line-11)">
</text><text class="terminal-187467880-r4" x="12.2" y="312.8" textLength="427" clip-path="url(#terminal-187467880-line-12)">Legal&#160;Moon&#160;Divorce:&#160;A&#160;Snack&#160;Too&#160;Far</text><text class="terminal-187467880-r1" x="1464" y="312.8" textLength="12.2" clip-path="url(#terminal-187467880-line-12)">
</text><text class="terminal-187467880-r4" x="12.2" y="337.2" textLength="1183.4" clip-path="url(#terminal-187467880-line-13)">Too&#160;Many&#160;Wizards&#160;In&#160;The&#160;Coat&#160;Room&#160;-&#160;S06E13&#160;-&#160;The&#160;Soft&#160;Launch&#160;Of&#160;The&#160;Library&#x27;s&#160;Left&#160;Hook:&#160;Part&#160;One</text><text class="terminal-187467880-r1" x="1464" y="337.2" textLength="12.2" clip-path="url(#terminal-187467880-line-13)">
</text><text class="terminal-187467880-r4" x="12.2" y="361.6" textLength="1268.8" clip-path="url(#terminal-187467880-line-14)">The&#160;Tax&#160;Goblin&#160;Chronicles&#160;-&#160;S07E16&#160;-&#160;A&#160;Gentle&#160;Warning&#160;About&#160;The&#160;Spreadsheet&#160;That&#160;Winked:&#160;The&#160;Soft&#160;Reboot</text><text class="terminal-187467880-r1" x="1464" y="361.6" textLength="12.2" clip-path="url(#terminal-187467880-line-14)">
</text><text class="terminal-187467880-r4" x="12.2" y="386" textLength="1378.6" clip-path="url(#terminal-187467880-line-15)">Ghosts&#160;Prefer&#160;Public&#160;Transit&#160;-&#160;S03E23&#160;-&#160;My&#160;Very&#160;Normal&#160;The&#160;Sandwich&#160;In&#160;Witness&#160;Protection:&#160;The&#160;Soup&#160;Council&#160;Remix</text><text class="terminal-187467880-r1" x="1464" y="386" textLength="12.2" clip-path="url(#terminal-187467880-line-15)">
</text><text class="terminal-187467880-r4" x="12.2" y="410.4" textLength="1085.8" clip-path="url(#terminal-187467880-line-16)">The&#160;Suitcase&#160;Full&#160;Of&#160;Bees&#160;-&#160;S04E05&#160;-&#160;The&#160;Forbidden&#160;A&#160;Raccoon&#160;At&#160;The&#160;Board&#160;Meeting:&#160;In&#160;4:3</text><text class="terminal-187467880-r1" x="1464" y="410.4" textLength="12.2" clip-path="url(#terminal-187467880-line-16)">
</text><text class="terminal-187467880-r4" x="12.2" y="434.8" textLength="1000.4" clip-path="url(#terminal-187467880-line-17)">The&#160;Extremely&#160;Legal&#160;Dragon&#160;-&#160;S01E12&#160;-&#160;A&#160;Night&#160;For&#160;A&#160;Drawer&#160;Full&#160;Of&#160;Omens:&#160;Part&#160;Two</text><text class="terminal-187467880-r1" x="1464" y="434.8" textLength="12.2" clip-path="url(#terminal-187467880-line-17)">
</text><text class="terminal-187467880-r4" x="12.2" y="459.2" textLength="1171.2" clip-path="url(#terminal-187467880-line-18)">The&#160;Extremely&#160;Legal&#160;Dragon&#160;-&#160;S05E06&#160;-&#160;Please&#160;Do&#160;Not&#160;The&#160;Library&#x27;s&#160;Left&#160;Hook:&#160;Director&#x27;s&#160;Sandwich</text><text class="terminal-187467880-r1" x="1464" y="459.2" textLength="12.2" clip-path="url(#terminal-187467880-line-18)">
</text><text class="terminal-187467880-r4" x="12.2" y="483.6" textLength="1037" clip-path="url(#terminal-187467880-line-19)">The&#160;Haunted&#160;Karaoke&#160;Warranty&#160;-&#160;S05E17&#160;-&#160;How&#160;To&#160;Hide&#160;The&#160;Suitcase&#160;That&#160;Purrs:&#160;Part&#160;One</text><text class="terminal-187467880-r1" x="1464" y="483.6" textLength="12.2" clip-path="url(#terminal-187467880-line-19)">
</text><text class="terminal-187467880-r4" x="12.2" y="508" textLength="1317.6" clip-path="url(#terminal-187467880-line-20)">Detective&#160;Soup&#160;And&#160;The&#160;Algebra&#160;Ghost&#160;-&#160;S02E13&#160;-&#160;The&#160;Moonlit&#160;An&#160;Elevator&#160;Wearing&#160;Perfume:&#160;The&#160;Night&#160;Shift&#160;Cut</text><text class="terminal-187467880-r1" x="1464" y="508" textLength="12.2" clip-path="url(#terminal-187467880-line-20)">
</text><text class="terminal-187467880-r5" x="12.2" y="532.4" textLength="1268.8" clip-path="url(#terminal-187467880-line-21)">The&#160;Basement&#160;Has&#160;A&#160;Dress&#160;Code&#160;-&#160;S03E27&#160;-&#160;My&#160;Very&#160;Normal&#160;The&#160;Consent&#160;Forward&#160;Committee:&#160;Broadcast&#160;Version</text><text class="terminal-187467880-r1" x="1464" y="532.4" textLength="12.2" clip-path="url(#terminal-187467880-line-21)">
</text><text class="terminal-187467880-r4" x="12.2" y="556.8" textLength="549" clip-path="url(#terminal-187467880-line-22)">Cursed&#160;Dragon&#160;Lease:&#160;Quest&#160;For&#160;The&#160;Good&#160;Chair</text><text class="terminal-187467880-r1" x="1464" y="556.8" textLength="12.2" clip-path="url(#terminal-187467880-line-22)">
</text><text class="terminal-187467880-r4" x="12.2" y="581.2" textLength="1220" clip-path="url(#terminal-187467880-line-23)">Noir&#160;Laundromat&#160;Honeymoon&#160;-&#160;S01E06&#160;-&#160;The&#160;Completely&#160;Innocent&#160;A&#160;Ghost&#160;With&#160;A&#160;Side&#160;Hustle:&#160;After&#160;Lunch</text><text class="terminal-187467880-r1" x="1464" y="581.2" textLength="12.2" clip-path="url(#terminal-187467880-line-23)">
</text><text class="terminal-187467880-r4" x="12.2" y="605.6" textLength="1195.6" clip-path="url(#terminal-187467880-line-24)">The&#160;Extremely&#160;Legal&#160;Dragon&#160;-&#160;S04E17&#160;-&#160;Return&#160;Of&#160;The&#160;Basement&#160;With&#160;Dimples:&#160;Under&#160;Fluorescent&#160;Light</text><text class="terminal-187467880-r1" x="1464" y="605.6" textLength="12.2" clip-path="url(#terminal-187467880-line-24)">
</text><text class="terminal-187467880-r4" x="12.2" y="630" textLength="1342" clip-path="url(#terminal-187467880-line-25)">The&#160;Airship&#160;Of&#160;Questionable&#160;Choices&#160;-&#160;S02E16&#160;-&#160;The&#160;Mildly&#160;Spicy&#160;The&#160;Goblin&#160;With&#160;Tax&#160;Questions:&#160;The&#160;Soft&#160;Reboot</text><text class="terminal-187467880-r1" x="1464" y="630" textLength="12.2" clip-path="url(#terminal-187467880-line-25)">
</text><text class="terminal-187467880-r4" x="12.2" y="654.4" textLength="1207.8" clip-path="url(#terminal-187467880-line-26)">Witchcraft&#160;For&#160;Office&#160;Managers&#160;-&#160;S02E10&#160;-&#160;Breakfast&#160;With&#160;The&#160;Sandwich&#160;In&#160;Witness&#160;Protection:&#160;In&#160;4:3</text><text class="terminal-187467880-r1" x="1464" y="654.4" textLength="12.2" clip-path="url(#terminal-187467880-line-26)">
</text><text class="terminal-187467880-r4" x="12.2" y="678.8" textLength="524.6" clip-path="url(#terminal-187467880-line-27)">Sideways&#160;The&#160;Teapot&#160;That&#160;Knew:&#160;Mostly&#160;Pants</text><text class="terminal-187467880-r1" x="1464" y="678.8" textLength="12.2" clip-path="url(#terminal-187467880-line-27)">
</text><text class="terminal-187467880-r4" x="12.2" y="703.2" textLength="1073.6" clip-path="url(#terminal-187467880-line-28)">The&#160;Tax&#160;Goblin&#160;Chronicles&#160;-&#160;S02E10&#160;-&#160;No&#160;One&#160;Asked&#160;For&#160;The&#160;Cactus&#160;That&#160;Knows:&#160;After&#160;Lunch</text><text class="terminal-187467880-r1" x="1464" y="703.2" textLength="12.2" clip-path="url(#terminal-187467880-line-28)">
</text><text class="terminal-187467880-r4" x="12.2" y="727.6" textLength="963.8" clip-path="url(#terminal-187467880-line-29)">Goblin&#160;HR&#160;After&#160;Midnight&#160;-&#160;S07E07&#160;-&#160;The&#160;Mildly&#160;Spicy&#160;The&#160;Steamy&#160;Toolbox:&#160;In&#160;4:3</text><text class="terminal-187467880-r1" x="1464" y="727.6" textLength="12.2" clip-path="url(#terminal-187467880-line-29)">
</text><text class="terminal-187467880-r4" x="12.2" y="752" textLength="500.2" clip-path="url(#terminal-187467880-line-30)">Haunted&#160;Kaiju&#160;Tax&#160;Season:&#160;A&#160;Snack&#160;Too&#160;Far</text><text class="terminal-187467880-r1" x="1464" y="752" textLength="12.2" clip-path="url(#terminal-187467880-line-30)">
</text><text class="terminal-187467880-r4" x="12.2" y="776.4" textLength="1183.4" clip-path="url(#terminal-187467880-line-31)">The&#160;Bureau&#160;Of&#160;Almost&#160;Heroes&#160;-&#160;S04E23&#160;-&#160;The&#160;Haunted&#160;A&#160;Romantic&#160;Extension&#160;Cord:&#160;The&#160;Night&#160;Shift&#160;Cut</text><text class="terminal-187467880-r1" x="1464" y="776.4" textLength="12.2" clip-path="url(#terminal-187467880-line-31)">
</text><text class="terminal-187467880-r4" x="12.2" y="800.8" textLength="1122.4" clip-path="url(#terminal-187467880-line-32)">Sofa&#160;Kingdom&#160;After&#160;Dark&#160;-&#160;S05E11&#160;-&#160;Breakfast&#160;With&#160;The&#160;Kissing&#160;Booth&#160;Audit:&#160;Broadcast&#160;Version</text><text class="terminal-187467880-r1" x="1464" y="800.8" textLength="12.2" clip-path="url(#terminal-187467880-line-32)">
</text><text class="terminal-187467880-r4" x="12.2" y="825.2" textLength="1134.6" clip-path="url(#terminal-187467880-line-33)">Cursed&#160;Coupon&#160;Breakfast&#160;Club&#160;-&#160;S04E02&#160;-&#160;The&#160;Emergency&#160;An&#160;Elevator&#160;Wearing&#160;Perfume:&#160;No&#160;Refunds</text><text class="terminal-187467880-r1" x="1464" y="825.2" textLength="12.2" clip-path="url(#terminal-187467880-line-33)">
</text><text class="terminal-187467880-r4" x="12.2" y="849.6" textLength="671" clip-path="url(#terminal-187467880-line-34)">Forbidden&#160;Filing&#160;Cabinet&#160;Honeymoon:&#160;Night&#160;Shift&#160;Edition</text><text class="terminal-187467880-r1" x="1464" y="849.6" textLength="12.2" clip-path="url(#terminal-187467880-line-34)">
</text><text class="terminal-187467880-r6" x="12.2" y="874" textLength="524.6" clip-path="url(#terminal-187467880-line-35)">style:&#160;02-jbrowse-batman-high-contrast.tcss</text>
    </g>
    </g>
</svg>
