<svg class="rich-terminal" viewBox="0 0 1482 928.4" xmlns="http://www.w3.org/2000/svg">
    <!-- Generated with Rich https://www.textualize.io -->
    <style>

    @font-face {
        font-family: "Fira Code";
        src: local("FiraCode-Regular"),
                url("https://cdnjs.cloudflare.com/ajax/libs/firacode/6.2.0/woff2/FiraCode-Regular.woff2") format("woff2"),
                url("https://cdnjs.cloudflare.com/ajax/libs/firacode/6.2.0/woff/FiraCode-Regular.woff") format("woff");
        font-style: normal;
        font-weight: 400;
    }
    @font-face {
        font-family: "Fira Code";
        src: local("FiraCode-Bold"),
                url("https://cdnjs.cloudflare.com/ajax/libs/firacode/6.2.0/woff2/FiraCode-Bold.woff2") format("woff2"),
                url("https://cdnjs.cloudflare.com/ajax/libs/firacode/6.2.0/woff/FiraCode-Bold.woff") format("woff");
        font-style: bold;
        font-weight: 700;
    }

    .terminal-2166091244-matrix {
        font-family: Fira Code, monospace;
        font-size: 20px;
        line-height: 24.4px;
        font-variant-east-asian: full-width;
    }

    .terminal-2166091244-title {
        font-size: 18px;
        font-weight: bold;
        font-family: arial;
    }

    .terminal-2166091244-r1 { fill: #c5c8c6 }
.terminal-2166091244-r2 { fill: #d8d8d8 }
.terminal-2166091244-r3 { fill: #9d9d9d }
.terminal-2166091244-r4 { fill: #959595 }
.terminal-2166091244-r5 { fill: #d8d8d8;font-weight: bold }
.terminal-2166091244-r6 { fill: #7b7b7b }
    </style>

    <defs>
    <clipPath id="terminal-2166091244-clip-terminal">
      <rect x="0" y="0" width="1463.0" height="877.4" />
    </clipPath>
    <clipPath id="terminal-2166091244-line-0">
    <rect x="0" y="1.5" width="1464" height="24.65"/>
            </clipPath>
<clipPath id="terminal-2166091244-line-1">
    <rect x="0" y="25.9" width="1464" height="24.65"/>
            </clipPath>
<clipPath id="terminal-2166091244-line-2">
    <rect x="0" y="50.3" width="1464" height="24.65"/>
            </clipPath>
<clipPath id="terminal-2166091244-line-3">
    <rect x="0" y="74.7" width="1464" height="24.65"/>
            </clipPath>
<clipPath id="terminal-2166091244-line-4">
    <rect x="0" y="99.1" width="1464" height="24.65"/>
            </clipPath>
<clipPath id="terminal-2166091244-line-5">
    <rect x="0" y="123.5" width="1464" height="24.65"/>
            </clipPath>
<clipPath id="terminal-2166091244-line-6">
    <rect x="0" y="147.9" width="1464" height="24.65"/>
            </clipPath>
<clipPath id="terminal-2166091244-line-7">
    <rect x="0" y="172.3" width="1464" height="24.65"/>
            </clipPath>
<clipPath id="terminal-2166091244-line-8">
    <rect x="0" y="196.7" width="1464" height="24.65"/>
            </clipPath>
<clipPath id="terminal-2166091244-line-9">
    <rect x="0" y="221.1" width="1464" height="24.65"/>
            </clipPath>
<clipPath id="terminal-2166091244-line-10">
    <rect x="0" y="245.5" width="1464" height="24.65"/>
            </clipPath>
<clipPath id="terminal-2166091244-line-11">
    <rect x="0" y="269.9" width="1464" height="24.65"/>
            </clipPath>
<clipPath id="terminal-2166091244-line-12">
    <rect x="0" y="294.3" width="1464" height="24.65"/>
            </clipPath>
<clipPath id="terminal-2166091244-line-13">
    <rect x="0" y="318.7" width="1464" height="24.65"/>
            </clipPath>
<clipPath id="terminal-2166091244-line-14">
    <rect x="0" y="343.1" width="1464" height="24.65"/>
            </clipPath>
<clipPath id="terminal-2166091244-line-15">
    <rect x="0" y="367.5" width="1464" height="24.65"/>
            </clipPath>
<clipPath id="terminal-2166091244-line-16">
    <rect x="0" y="391.9" width="1464" height="24.65"/>
            </clipPath>
<clipPath id="terminal-2166091244-line-17">
    <rect x="0" y="416.3" width="1464" height="24.65"/>
            </clipPath>
<clipPath id="terminal-2166091244-line-18">
    <rect x="0" y="440.7" width="1464" height="24.65"/>
            </clipPath>
<clipPath id="terminal-2166091244-line-19">
    <rect x="0" y="465.1" width="1464" height="24.65"/>
            </clipPath>
<clipPath id="terminal-2166091244-line-20">
    <rect x="0" y="489.5" width="1464" height="24.65"/>
            </clipPath>
<clipPath id="terminal-2166091244-line-21">
    <rect x="0" y="513.9" width="1464" height="24.65"/>
            </clipPath>
<clipPath id="terminal-2166091244-line-22">
    <rect x="0" y="538.3" width="1464" height="24.65"/>
            </clipPath>
<clipPath id="terminal-2166091244-line-23">
    <rect x="0" y="562.7" width="1464" height="24.65"/>
            </clipPath>
<clipPath id="terminal-2166091244-line-24">
    <rect x="0" y="587.1" width="1464" height="24.65"/>
            </clipPath>
<clipPath id="terminal-2166091244-line-25">
    <rect x="0" y="611.5" width="1464" height="24.65"/>
            </clipPath>
<clipPath id="terminal-2166091244-line-26">
    <rect x="0" y="635.9" width="1464" height="24.65"/>
            </clipPath>
<clipPath id="terminal-2166091244-line-27">
    <rect x="0" y="660.3" width="1464" height="24.65"/>
            </clipPath>
<clipPath id="terminal-2166091244-line-28">
    <rect x="0" y="684.7" width="1464" height="24.65"/>
            </clipPath>
<clipPath id="terminal-2166091244-line-29">
    <rect x="0" y="709.1" width="1464" height="24.65"/>
            </clipPath>
<clipPath id="terminal-2166091244-line-30">
    <rect x="0" y="733.5" width="1464" height="24.65"/>
            </clipPath>
<clipPath id="terminal-2166091244-line-31">
    <rect x="0" y="757.9" width="1464" height="24.65"/>
            </clipPath>
<clipPath id="terminal-2166091244-line-32">
    <rect x="0" y="782.3" width="1464" height="24.65"/>
            </clipPath>
<clipPath id="terminal-2166091244-line-33">
    <rect x="0" y="806.7" width="1464" height="24.65"/>
            </clipPath>
<clipPath id="terminal-2166091244-line-34">
    <rect x="0" y="831.1" width="1464" height="24.65"/>
            </clipPath>
    </defs>

    <rect fill="#292929" stroke="rgba(255,255,255,0.35)" stroke-width="1" x="1" y="1" width="1480" height="926.4" rx="8"/><text class="terminal-2166091244-title" fill="#c5c8c6" text-anchor="middle" x="740" y="27">now-playing.svg&#160;-&#160;09-jbrowse-lowcontrast-gray.tcss</text>
            <g transform="translate(26,22)">
            <circle cx="0" cy="0" r="7" fill="#ff5f57"/>
            <circle cx="22" cy="0" r="7" fill="#febc2e"/>
            <circle cx="44" cy="0" r="7" fill="#28c840"/>
            </g>
        
    <g transform="translate(9, 41)" clip-path="url(#terminal-2166091244-clip-terminal)">
    <rect fill="#252525" x="0" y="1.5" width="12.2" height="24.65" shape-rendering="crispEdges"/><rect fill="#252525" x="12.2" y="1.5" width="1122.4" height="24.65" shape-rendering="crispEdges"/><rect fill="#252525" x="1134.6" y="1.5" width="12.2" height="24.65" shape-rendering="crispEdges"/><rect fill="#151515" x="1146.8" y="1.5" width="317.2" height="24.65" shape-rendering="crispEdges"/><rect fill="#212121" x="0" y="25.9" width="12.2" height="24.65" shape-rendering="crispEdges"/><rect fill="#212121" x="12.2" y="25.9" width="1439.6" height="24.65" shape-rendering="crispEdges"/><rect fill="#212121" x="1451.8" y="25.9" width="12.2" height="24.65" shape-rendering="crispEdges"/><rect fill="#151515" x="0" y="50.3" width="12.2" height="24.65" shape-rendering="crispEdges"/><rect fill="#151515" x="12.2" y="50.3" width="1439.6" height="24.65" shape-rendering="crispEdges"/><rect fill="#151515" x="1451.8" y="50.3" width="12.2" height="24.65" shape-rendering="crispEdges"/><rect fill="#151515" x="0" y="74.7" width="12.2" height="24.65" shape-rendering="crispEdges"/><rect fill="#151515" x="12.2" y="74.7" width="1439.6" height="24.65" shape-rendering="crispEdges"/><rect fill="#151515" x="1451.8" y="74.7" width="12.2" height="24.65" shape-rendering="crispEdges"/><rect fill="#151515" x="0" y="99.1" width="12.2" height="24.65" shape-rendering="crispEdges"/><rect fill="#151515" x="12.2" y="99.1" width="1439.6" height="24.65" shape-rendering="crispEdges"/><rect fill="#151515" x="1451.8" y="99.1" width="12.2" height="24.65" shape-rendering="crispEdges"/><rect fill="#151515" x="0" y="123.5" width="12.2" height="24.65" shape-rendering="crispEdges"/><rect fill="#151515" x="12.2" y="123.5" width="1439.6" height="24.65" shape-rendering="crispEdges"/><rect fill="#151515" x="1451.8" y="123.5" width="12.2" height="24.65" shape-rendering="crispEdges"/><rect fill="#151515" x="0" y="147.9" width="12.2" height="24.65" shape-rendering="crispEdges"/><rect fill="#151515" x="12.2" y="147.9" width="1439.6" height="24.65" shape-rendering="crispEdges"/><rect fill="#151515" x="1451.8" y="147.9" width="12.2" height="24.65" shape-rendering="crispEdges"/><rect fill="#151515" x="0" y="172.3" width="12.2" height="24.65" shape-rendering="crispEdges"/><rect fill="#151515" x="12.2" y="172.3" width="1439.6" height="24.65" shape-rendering="crispEdges"/><rect fill="#151515" x="1451.8" y="172.3" width="12.2" height="24.65" shape-rendering="crispEdges"/><rect fill="#151515" x="0" y="196.7" width="12.2" height="24.65" shape-rendering="crispEdges"/><rect fill="#151515" x="12.2" y="196.7" width="1439.6" height="24.65" shape-rendering="crispEdges"/><rect fill="#151515" x="1451.8" y="196.7" width="12.2" height="24.65" shape-rendering="crispEdges"/><rect fill="#151515" x="0" y="221.1" width="12.2" height="24.65" shape-rendering="crispEdges"/><rect fill="#151515" x="12.2" y="221.1" width="1439.6" height="24.65" shape-rendering="crispEdges"/><rect fill="#151515" x="1451.8" y="221.1" width="12.2" height="24.65" shape-rendering="crispEdges"/><rect fill="#151515" x="0" y="245.5" width="12.2" height="24.65" shape-rendering="crispEdges"/><rect fill="#151515" x="12.2" y="245.5" width="1439.6" height="24.65" shape-rendering="crispEdges"/><rect fill="#151515" x="1451.8" y="245.5" width="12.2" height="24.65" shape-rendering="crispEdges"/><rect fill="#151515" x="0" y="269.9" width="12.2" height="24.65" shape-rendering="crispEdges"/><rect fill="#151515" x="12.2" y="269.9" width="1439.6" height="24.65" shape-rendering="crispEdges"/><rect fill="#151515" x="1451.8" y="269.9" width="12.2" height="24.65" shape-rendering="crispEdges"/><rect fill="#151515" x="0" y="294.3" width="12.2" height="24.65" shape-rendering="crispEdges"/><rect fill="#151515" x="12.2" y="294.3" width="122" height="24.65" shape-rendering="crispEdges"/><rect fill="#151515" x="134.2" y="294.3" width="24.4" height="24.65" shape-rendering="crispEdges"/><rect fill="#151515" x="158.6" y="294.3" width="488" height="24.65" shape-rendering="crispEdges"/><rect fill="#151515" x="646.6" y="294.3" width="158.6" height="24.65" shape-rendering="crispEdges"/><rect fill="#151515" x="805.2" y="294.3" width="500.2" height="24.65" shape-rendering="crispEdges"/><rect fill="#151515" x="1305.4" y="294.3" width="24.4" height="24.65" shape-rendering="crispEdges"/><rect fill="#151515" x="1329.8" y="294.3" width="122" height="24.65" shape-rendering="crispEdges"/><rect fill="#151515" x="1451.8" y="294.3" width="12.2" height="24.65" shape-rendering="crispEdges"/><rect fill="#151515" x="0" y="318.7" width="12.2" height="24.65" shape-rendering="crispEdges"/><rect fill="#151515" x="12.2" y="318.7" width="122" height="24.65" shape-rendering="crispEdges"/><rect fill="#151515" x="134.2" y="318.7" width="12.2" height="24.65" shape-rendering="crispEdges"/><rect fill="#151515" x="146.4" y="318.7" width="1171.2" height="24.65" shape-rendering="crispEdges"/><rect fill="#151515" x="1317.6" y="318.7" width="12.2" height="24.65" shape-rendering="crispEdges"/><rect fill="#151515" x="1329.8" y="318.7" width="122" height="24.65" shape-rendering="crispEdges"/><rect fill="#151515" x="1451.8" y="318.7" width="12.2" height="24.65" shape-rendering="crispEdges"/><rect fill="#151515" x="0" y="343.1" width="12.2" height="24.65" shape-rendering="crispEdges"/><rect fill="#151515" x="12.2" y="343.1" width="122" height="24.65" shape-rendering="crispEdges"/><rect fill="#151515" x="134.2" y="343.1" width="12.2" height="24.65" shape-rendering="crispEdges"/><rect fill="#151515" x="146.4" y="343.1" width="24.4" height="24.65" shape-rendering="crispEdges"/><rect fill="#151515" x="170.8" y="343.1" width="134.2" height="24.65" shape-rendering="crispEdges"/><rect fill="#151515" x="305" y="343.1" width="988.2" height="24.65" shape-rendering="crispEdges"/><rect fill="#151515" x="1293.2" y="343.1" width="24.4" height="24.65" shape-rendering="crispEdges"/><rect fill="#151515" x="1317.6" y="343.1" width="12.2" height="24.65" shape-rendering="crispEdges"/><rect fill="#151515" x="1329.8" y="343.1" width="122" height="24.65" shape-rendering="crispEdges"/><rect fill="#151515" x="1451.8" y="343.1" width="12.2" height="24.65" shape-rendering="crispEdges"/><rect fill="#151515" x="0" y="367.5" width="12.2" height="24.65" shape-rendering="crispEdges"/><rect fill="#151515" x="12.2" y="367.5" width="122" height="24.65" shape-rendering="crispEdges"/><rect fill="#151515" x="134.2" y="367.5" width="12.2" height="24.65" shape-rendering="crispEdges"/><rect fill="#151515" x="146.4" y="367.5" width="24.4" height="24.65" shape-rendering="crispEdges"/><rect fill="#151515" x="170.8" y="367.5" width="1122.4" height="24.65" shape-rendering="crispEdges"/><rect fill="#151515" x="1293.2" y="367.5" width="24.4" height="24.65" shape-rendering="crispEdges"/><rect fill="#151515" x="1317.6" y="367.5" width="12.2" height="24.65" shape-rendering="crispEdges"/><rect fill="#151515" x="1329.8" y="367.5" width="122" height="24.65" shape-rendering="crispEdges"/><rect fill="#151515" x="1451.8" y="367.5" width="12.2" height="24.65" shape-rendering="crispEdges"/><rect fill="#151515" x="0" y="391.9" width="12.2" height="24.65" shape-rendering="crispEdges"/><rect fill="#151515" x="12.2" y="391.9" width="122" height="24.65" shape-rendering="crispEdges"/><rect fill="#151515" x="134.2" y="391.9" width="12.2" height="24.65" shape-rendering="crispEdges"/><rect fill="#151515" x="146.4" y="391.9" width="24.4" height="24.65" shape-rendering="crispEdges"/><rect fill="#151515" x="170.8" y="391.9" width="1122.4" height="24.65" shape-rendering="crispEdges"/><rect fill="#151515" x="1293.2" y="391.9" width="24.4" height="24.65" shape-rendering="crispEdges"/><rect fill="#151515" x="1317.6" y="391.9" width="12.2" height="24.65" shape-rendering="crispEdges"/><rect fill="#151515" x="1329.8" y="391.9" width="122" height="24.65" shape-rendering="crispEdges"/><rect fill="#151515" x="1451.8" y="391.9" width="12.2" height="24.65" shape-rendering="crispEdges"/><rect fill="#151515" x="0" y="416.3" width="12.2" height="24.65" shape-rendering="crispEdges"/><rect fill="#151515" x="12.2" y="416.3" width="122" height="24.65" shape-rendering="crispEdges"/><rect fill="#151515" x="134.2" y="416.3" width="12.2" height="24.65" shape-rendering="crispEdges"/><rect fill="#151515" x="146.4" y="416.3" width="24.4" height="24.65" shape-rendering="crispEdges"/><rect fill="#151515" x="170.8" y="416.3" width="561.2" height="24.65" shape-rendering="crispEdges"/><rect fill="#151515" x="732" y="416.3" width="561.2" height="24.65" shape-rendering="crispEdges"/><rect fill="#151515" x="1293.2" y="416.3" width="24.4" height="24.65" shape-rendering="crispEdges"/><rect fill="#151515" x="1317.6" y="416.3" width="12.2" height="24.65" shape-rendering="crispEdges"/><rect fill="#151515" x="1329.8" y="416.3" width="122" height="24.65" shape-rendering="crispEdges"/><rect fill="#151515" x="1451.8" y="416.3" width="12.2" height="24.65" shape-rendering="crispEdges"/><rect fill="#151515" x="0" y="440.7" width="12.2" height="24.65" shape-rendering="crispEdges"/><rect fill="#151515" x="12.2" y="440.7" width="122" height="24.65" shape-rendering="crispEdges"/><rect fill="#151515" x="134.2" y="440.7" width="12.2" height="24.65" shape-rendering="crispEdges"/><rect fill="#151515" x="146.4" y="440.7" width="24.4" height="24.65" shape-rendering="crispEdges"/><rect fill="#151515" x="170.8" y="440.7" width="1122.4" height="24.65" shape-rendering="crispEdges"/><rect fill="#151515" x="1293.2" y="440.7" width="24.4" height="24.65" shape-rendering="crispEdges"/><rect fill="#151515" x="1317.6" y="440.7" width="12.2" height="24.65" shape-rendering="crispEdges"/><rect fill="#151515" x="1329.8" y="440.7" width="122" height="24.65" shape-rendering="crispEdges"/><rect fill="#151515" x="1451.8" y="440.7" width="12.2" height="24.65" shape-rendering="crispEdges"/><rect fill="#151515" x="0" y="465.1" width="12.2" height="24.65" shape-rendering="crispEdges"/><rect fill="#151515" x="12.2" y="465.1" width="122" height="24.65" shape-rendering="crispEdges"/><rect fill="#151515" x="134.2" y="465.1" width="12.2" height="24.65" shape-rendering="crispEdges"/><rect fill="#151515" x="146.4" y="465.1" width="24.4" height="24.65" shape-rendering="crispEdges"/><rect fill="#151515" x="170.8" y="465.1" width="524.6" height="24.65" shape-rendering="crispEdges"/><rect fill="#151515" x="695.4" y="465.1" width="597.8" height="24.65" shape-rendering="crispEdges"/><rect fill="#151515" x="1293.2" y="465.1" width="24.4" height="24.65" shape-rendering="crispEdges"/><rect fill="#151515" x="1317.6" y="465.1" width="12.2" height="24.65" shape-rendering="crispEdges"/><rect fill="#151515" x="1329.8" y="465.1" width="122" height="24.65" shape-rendering="crispEdges"/><rect fill="#151515" x="1451.8" y="465.1" width="12.2" height="24.65" shape-rendering="crispEdges"/><rect fill="#151515" x="0" y="489.5" width="12.2" height="24.65" shape-rendering="crispEdges"/><rect fill="#151515" x="12.2" y="489.5" width="122" height="24.65" shape-rendering="crispEdges"/><rect fill="#151515" x="134.2" y="489.5" width="12.2" height="24.65" shape-rendering="crispEdges"/><rect fill="#151515" x="146.4" y="489.5" width="24.4" height="24.65" shape-rendering="crispEdges"/><rect fill="#151515" x="170.8" y="489.5" width="1122.4" height="24.65" shape-rendering="crispEdges"/><rect fill="#151515" x="1293.2" y="489.5" width="24.4" height="24.65" shape-rendering="crispEdges"/><rect fill="#151515" x="1317.6" y="489.5" width="12.2" height="24.65" shape-rendering="crispEdges"/><rect fill="#151515" x="1329.8" y="489.5" width="122" height="24.65" shape-rendering="crispEdges"/><rect fill="#151515" x="1451.8" y="489.5" width="12.2" height="24.65" shape-rendering="crispEdges"/><rect fill="#151515" x="0" y="513.9" width="12.2" height="24.65" shape-rendering="crispEdges"/><rect fill="#151515" x="12.2" y="513.9" width="122" height="24.65" shape-rendering="crispEdges"/><rect fill="#151515" x="134.2" y="513.9" width="12.2" height="24.65" shape-rendering="crispEdges"/><rect fill="#151515" x="146.4" y="513.9" width="24.4" height="24.65" shape-rendering="crispEdges"/><rect fill="#151515" x="170.8" y="513.9" width="1061.4" height="24.65" shape-rendering="crispEdges"/><rect fill="#151515" x="1232.2" y="513.9" width="61" height="24.65" shape-rendering="crispEdges"/><rect fill="#151515" x="1293.2" y="513.9" width="24.4" height="24.65" shape-rendering="crispEdges"/><rect fill="#151515" x="1317.6" y="513.9" width="12.2" height="24.65" shape-rendering="crispEdges"/><rect fill="#151515" x="1329.8" y="513.9" width="122" height="24.65" shape-rendering="crispEdges"/><rect fill="#151515" x="1451.8" y="513.9" width="12.2" height="24.65" shape-rendering="crispEdges"/><rect fill="#151515" x="0" y="538.3" width="12.2" height="24.65" shape-rendering="crispEdges"/><rect fill="#151515" x="12.2" y="538.3" width="122" height="24.65" shape-rendering="crispEdges"/><rect fill="#151515" x="134.2" y="538.3" width="12.2" height="24.65" shape-rendering="crispEdges"/><rect fill="#151515" x="146.4" y="538.3" width="24.4" height="24.65" shape-rendering="crispEdges"/><rect fill="#151515" x="170.8" y="538.3" width="475.8" height="24.65" shape-rendering="crispEdges"/><rect fill="#151515" x="646.6" y="538.3" width="646.6" height="24.65" shape-rendering="crispEdges"/><rect fill="#151515" x="1293.2" y="538.3" width="24.4" height="24.65" shape-rendering="crispEdges"/><rect fill="#151515" x="1317.6" y="538.3" width="12.2" height="24.65" shape-rendering="crispEdges"/><rect fill="#151515" x="1329.8" y="538.3" width="122" height="24.65" shape-rendering="crispEdges"/><rect fill="#151515" x="1451.8" y="538.3" width="12.2" height="24.65" shape-rendering="crispEdges"/><rect fill="#151515" x="0" y="562.7" width="12.2" height="24.65" shape-rendering="crispEdges"/><rect fill="#151515" x="12.2" y="562.7" width="122" height="24.65" shape-rendering="crispEdges"/><rect fill="#151515" x="134.2" y="562.7" width="12.2" height="24.65" shape-rendering="crispEdges"/><rect fill="#151515" x="146.4" y="562.7" width="1171.2" height="24.65" shape-rendering="crispEdges"/><rect fill="#151515" x="1317.6" y="562.7" width="12.2" height="24.65" shape-rendering="crispEdges"/><rect fill="#151515" x="1329.8" y="562.7" width="122" height="24.65" shape-rendering="crispEdges"/><rect fill="#151515" x="1451.8" y="562.7" width="12.2" height="24.65" shape-rendering="crispEdges"/><rect fill="#151515" x="0" y="587.1" width="12.2" height="24.65" shape-rendering="crispEdges"/><rect fill="#151515" x="12.2" y="587.1" width="122" height="24.65" shape-rendering="crispEdges"/><rect fill="#151515" x="134.2" y="587.1" width="1195.6" height="24.65" shape-rendering="crispEdges"/><rect fill="#151515" x="1329.8" y="587.1" width="122" height="24.65" shape-rendering="crispEdges"/><rect fill="#151515" x="1451.8" y="587.1" width="12.2" height="24.65" shape-rendering="crispEdges"/><rect fill="#151515" x="0" y="611.5" width="12.2" height="24.65" shape-rendering="crispEdges"/><rect fill="#151515" x="12.2" y="611.5" width="1439.6" height="24.65" shape-rendering="crispEdges"/><rect fill="#151515" x="1451.8" y="611.5" width="12.2" height="24.65" shape-rendering="crispEdges"/><rect fill="#151515" x="0" y="635.9" width="12.2" height="24.65" shape-rendering="crispEdges"/><rect fill="#151515" x="12.2" y="635.9" width="1439.6" height="24.65" shape-rendering="crispEdges"/><rect fill="#151515" x="1451.8" y="635.9" width="12.2" height="24.65" shape-rendering="crispEdges"/><rect fill="#151515" x="0" y="660.3" width="12.2" height="24.65" shape-rendering="crispEdges"/><rect fill="#151515" x="12.2" y="660.3" width="1439.6" height="24.65" shape-rendering="crispEdges"/><rect fill="#151515" x="1451.8" y="660.3" width="12.2" height="24.65" shape-rendering="crispEdges"/><rect fill="#151515" x="0" y="684.7" width="12.2" height="24.65" shape-rendering="crispEdges"/><rect fill="#151515" x="12.2" y="684.7" width="1439.6" height="24.65" shape-rendering="crispEdges"/><rect fill="#151515" x="1451.8" y="684.7" width="12.2" height="24.65" shape-rendering="crispEdges"/><rect fill="#151515" x="0" y="709.1" width="12.2" height="24.65" shape-rendering="crispEdges"/><rect fill="#151515" x="12.2" y="709.1" width="1439.6" height="24.65" shape-rendering="crispEdges"/><rect fill="#151515" x="1451.8" y="709.1" width="12.2" height="24.65" shape-rendering="crispEdges"/><rect fill="#151515" x="0" y="733.5" width="12.2" height="24.65" shape-rendering="crispEdges"/><rect fill="#151515" x="12.2" y="733.5" width="1439.6" height="24.65" shape-rendering="crispEdges"/><rect fill="#151515" x="1451.8" y="733.5" width="12.2" height="24.65" shape-rendering="crispEdges"/><rect fill="#151515" x="0" y="757.9" width="12.2" height="24.65" shape-rendering="crispEdges"/><rect fill="#151515" x="12.2" y="757.9" width="1439.6" height="24.65" shape-rendering="crispEdges"/><rect fill="#151515" x="1451.8" y="757.9" width="12.2" height="24.65" shape-rendering="crispEdges"/><rect fill="#151515" x="0" y="782.3" width="12.2" height="24.65" shape-rendering="crispEdges"/><rect fill="#151515" x="12.2" y="782.3" width="1439.6" height="24.65" shape-rendering="crispEdges"/><rect fill="#151515" x="1451.8" y="782.3" width="12.2" height="24.65" shape-rendering="crispEdges"/><rect fill="#151515" x="0" y="806.7" width="12.2" height="24.65" shape-rendering="crispEdges"/><rect fill="#151515" x="12.2" y="806.7" width="1439.6" height="24.65" shape-rendering="crispEdges"/><rect fill="#151515" x="1451.8" y="806.7" width="12.2" height="24.65" shape-rendering="crispEdges"/><rect fill="#151515" x="0" y="831.1" width="12.2" height="24.65" shape-rendering="crispEdges"/><rect fill="#151515" x="12.2" y="831.1" width="1439.6" height="24.65" shape-rendering="crispEdges"/><rect fill="#151515" x="1451.8" y="831.1" width="12.2" height="24.65" shape-rendering="crispEdges"/><rect fill="#151515" x="0" y="855.5" width="12.2" height="24.65" shape-rendering="crispEdges"/><rect fill="#151515" x="12.2" y="855.5" width="1207.8" height="24.65" shape-rendering="crispEdges"/><rect fill="#151515" x="1220" y="855.5" width="12.2" height="24.65" shape-rendering="crispEdges"/><rect fill="#151515" x="1232.2" y="855.5" width="231.8" height="24.65" shape-rendering="crispEdges"/>
    <g class="terminal-2166091244-matrix">
    <text class="terminal-2166091244-r2" x="12.2" y="20" textLength="1122.4" clip-path="url(#terminal-2166091244-line-0)">sort:&#160;recently&#160;added&#160;↓&#160;|&#160;5000&#160;loaded&#160;|&#160;5000&#160;matched&#160;|&#160;showing&#160;5000&#160;|&#160;display:&#160;title&#160;|&#160;?&#160;help</text><text class="terminal-2166091244-r1" x="1464" y="20" textLength="12.2" clip-path="url(#terminal-2166091244-line-0)">
</text><text class="terminal-2166091244-r1" x="1464" y="44.4" textLength="12.2" clip-path="url(#terminal-2166091244-line-1)">
</text><text class="terminal-2166091244-r1" x="1464" y="68.8" textLength="12.2" clip-path="url(#terminal-2166091244-line-2)">
</text><text class="terminal-2166091244-r1" x="1464" y="93.2" textLength="12.2" clip-path="url(#terminal-2166091244-line-3)">
</text><text class="terminal-2166091244-r1" x="1464" y="117.6" textLength="12.2" clip-path="url(#terminal-2166091244-line-4)">
</text><text class="terminal-2166091244-r1" x="1464" y="142" textLength="12.2" clip-path="url(#terminal-2166091244-line-5)">
</text><text class="terminal-2166091244-r1" x="1464" y="166.4" textLength="12.2" clip-path="url(#terminal-2166091244-line-6)">
</text><text class="terminal-2166091244-r1" x="1464" y="190.8" textLength="12.2" clip-path="url(#terminal-2166091244-line-7)">
</text><text class="terminal-2166091244-r1" x="1464" y="215.2" textLength="12.2" clip-path="url(#terminal-2166091244-line-8)">
</text><text class="terminal-2166091244-r1" x="1464" y="239.6" textLength="12.2" clip-path="url(#terminal-2166091244-line-9)">
</text><text class="terminal-2166091244-r1" x="1464" y="264" textLength="12.2" clip-path="url(#terminal-2166091244-line-10)">
</text><text class="terminal-2166091244-r1" x="1464" y="288.4" textLength="12.2" clip-path="url(#terminal-2166091244-line-11)">
</text><text class="terminal-2166091244-r4" x="134.2" y="312.8" textLength="24.4" clip-path="url(#terminal-2166091244-line-12)">╭─</text><text class="terminal-2166091244-r4" x="158.6" y="312.8" textLength="488" clip-path="url(#terminal-2166091244-line-12)">────────────────────────────────────────</text><text class="terminal-2166091244-r4" x="646.6" y="312.8" textLength="158.6" clip-path="url(#terminal-2166091244-line-12)">&#160;Now&#160;Playing&#160;</text><text class="terminal-2166091244-r4" x="805.2" y="312.8" textLength="500.2" clip-path="url(#terminal-2166091244-line-12)">─────────────────────────────────────────</text><text class="terminal-2166091244-r4" x="1305.4" y="312.8" textLength="24.4" clip-path="url(#terminal-2166091244-line-12)">─╮</text><text class="terminal-2166091244-r1" x="1464" y="312.8" textLength="12.2" clip-path="url(#terminal-2166091244-line-12)">
</text><text class="terminal-2166091244-r4" x="134.2" y="337.2" textLength="12.2" clip-path="url(#terminal-2166091244-line-13)">│</text><text class="terminal-2166091244-r4" x="1317.6" y="337.2" textLength="12.2" clip-path="url(#terminal-2166091244-line-13)">│</text><text class="terminal-2166091244-r1" x="1464" y="337.2" textLength="12.2" clip-path="url(#terminal-2166091244-line-13)">
</text><text class="terminal-2166091244-r4" x="134.2" y="361.6" textLength="12.2" clip-path="url(#terminal-2166091244-line-14)">│</text><text class="terminal-2166091244-r5" x="170.8" y="361.6" textLength="134.2" clip-path="url(#terminal-2166091244-line-14)">Now&#160;Playing</text><text class="terminal-2166091244-r4" x="1317.6" y="361.6" textLength="12.2" clip-path="url(#terminal-2166091244-line-14)">│</text><text class="terminal-2166091244-r1" x="1464" y="361.6" textLength="12.2" clip-path="url(#terminal-2166091244-line-14)">
</text><text class="terminal-2166091244-r4" x="134.2" y="386" textLength="12.2" clip-path="url(#terminal-2166091244-line-15)">│</text><text class="terminal-2166091244-r2" x="170.8" y="386" textLength="1122.4" clip-path="url(#terminal-2166091244-line-15)">q/backspace&#160;browser&#160;|&#160;Space&#160;pause&#160;|&#160;,/.&#160;seek&#160;|&#160;j&#160;jump&#160;|&#160;s&#160;subtitles&#160;|&#160;w&#160;web&#160;|&#160;Ctrl+G&#160;mpv&#160;log</text><text class="terminal-2166091244-r4" x="1317.6" y="386" textLength="12.2" clip-path="url(#terminal-2166091244-line-15)">│</text><text class="terminal-2166091244-r1" x="1464" y="386" textLength="12.2" clip-path="url(#terminal-2166091244-line-15)">
</text><text class="terminal-2166091244-r4" x="134.2" y="410.4" textLength="12.2" clip-path="url(#terminal-2166091244-line-16)">│</text><text class="terminal-2166091244-r4" x="1317.6" y="410.4" textLength="12.2" clip-path="url(#terminal-2166091244-line-16)">│</text><text class="terminal-2166091244-r1" x="1464" y="410.4" textLength="12.2" clip-path="url(#terminal-2166091244-line-16)">
</text><text class="terminal-2166091244-r4" x="134.2" y="434.8" textLength="12.2" clip-path="url(#terminal-2166091244-line-17)">│</text><text class="terminal-2166091244-r5" x="170.8" y="434.8" textLength="561.2" clip-path="url(#terminal-2166091244-line-17)">The&#160;Completely&#160;Different&#160;Otter&#160;Bureau&#160;–&#160;S05E05</text><text class="terminal-2166091244-r4" x="1317.6" y="434.8" textLength="12.2" clip-path="url(#terminal-2166091244-line-17)">│</text><text class="terminal-2166091244-r1" x="1464" y="434.8" textLength="12.2" clip-path="url(#terminal-2166091244-line-17)">
</text><text class="terminal-2166091244-r4" x="134.2" y="459.2" textLength="12.2" clip-path="url(#terminal-2166091244-line-18)">│</text><text class="terminal-2166091244-r4" x="1317.6" y="459.2" textLength="12.2" clip-path="url(#terminal-2166091244-line-18)">│</text><text class="terminal-2166091244-r1" x="1464" y="459.2" textLength="12.2" clip-path="url(#terminal-2166091244-line-18)">
</text><text class="terminal-2166091244-r4" x="134.2" y="483.6" textLength="12.2" clip-path="url(#terminal-2166091244-line-19)">│</text><text class="terminal-2166091244-r2" x="170.8" y="483.6" textLength="524.6" clip-path="url(#terminal-2166091244-line-19)">███████░░░░░░░░░░░░░░░░░░░░░░░&#160;&#160;0:30&#160;/&#160;2:00</text><text class="terminal-2166091244-r4" x="1317.6" y="483.6" textLength="12.2" clip-path="url(#terminal-2166091244-line-19)">│</text><text class="terminal-2166091244-r1" x="1464" y="483.6" textLength="12.2" clip-path="url(#terminal-2166091244-line-19)">
</text><text class="terminal-2166091244-r4" x="134.2" y="508" textLength="12.2" clip-path="url(#terminal-2166091244-line-20)">│</text><text class="terminal-2166091244-r4" x="1317.6" y="508" textLength="12.2" clip-path="url(#terminal-2166091244-line-20)">│</text><text class="terminal-2166091244-r1" x="1464" y="508" textLength="12.2" clip-path="url(#terminal-2166091244-line-20)">
</text><text class="terminal-2166091244-r4" x="134.2" y="532.4" textLength="12.2" clip-path="url(#terminal-2166091244-line-21)">│</text><text class="terminal-2166091244-r2" x="170.8" y="532.4" textLength="1061.4" clip-path="url(#terminal-2166091244-line-21)">state:&#160;playing&#160;&#160;&#160;&#160;quality:&#160;directvideo:&#160;hevc&#160;1920x1080audio:&#160;ac3&#160;en&#160;6ch&#160;&#160;&#160;&#160;subtitle:&#160;en</text><text class="terminal-2166091244-r4" x="1317.6" y="532.4" textLength="12.2" clip-path="url(#terminal-2166091244-line-21)">│</text><text class="terminal-2166091244-r1" x="1464" y="532.4" textLength="12.2" clip-path="url(#terminal-2166091244-line-21)">
</text><text class="terminal-2166091244-r4" x="134.2" y="556.8" textLength="12.2" clip-path="url(#terminal-2166091244-line-22)">│</text><text class="terminal-2166091244-r2" x="170.8" y="556.8" textLength="475.8" clip-path="url(#terminal-2166091244-line-22)">style:&#160;09-jbrowse-lowcontrast-gray.tcss</text><text class="terminal-2166091244-r4" x="1317.6" y="556.8" textLength="12.2" clip-path="url(#terminal-2166091244-line-22)">│</text><text class="terminal-2166091244-r1" x="1464" y="556.8" textLength="12.2" clip-path="url(#terminal-2166091244-line-22)">
</text><text class="terminal-2166091244-r4" x="134.2" y="581.2" textLength="12.2" clip-path="url(#terminal-2166091244-line-23)">│</text><text class="terminal-2166091244-r4" x="1317.6" y="581.2" textLength="12.2" clip-path="url(#terminal-2166091244-line-23)">│</text><text class="terminal-2166091244-r1" x="1464" y="581.2" textLength="12.2" clip-path="url(#terminal-2166091244-line-23)">
</text><text class="terminal-2166091244-r4" x="134.2" y="605.6" textLength="1195.6" clip-path="url(#terminal-2166091244-line-24)">╰────────────────────────────────────────────────────────────────────────────────────────────────╯</text><text class="terminal-2166091244-r1" x="1464" y="605.6" textLength="12.2" clip-path="url(#terminal-2166091244-line-24)">
</text><text class="terminal-2166091244-r1" x="1464" y="630" textLength="12.2" clip-path="url(#terminal-2166091244-line-25)">
</text><text class="terminal-2166091244-r1" x="1464" y="654.4" textLength="12.2" clip-path="url(#terminal-2166091244-line-26)">
</text><text class="terminal-2166091244-r1" x="1464" y="678.8" textLength="12.2" clip-path="url(#terminal-2166091244-line-27)">
</text><text class="terminal-2166091244-r1" x="1464" y="703.2" textLength="12.2" clip-path="url(#terminal-2166091244-line-28)">
</text><text class="terminal-2166091244-r1" x="1464" y="727.6" textLength="12.2" clip-path="url(#terminal-2166091244-line-29)">
</text><text class="terminal-2166091244-r1" x="1464" y="752" textLength="12.2" clip-path="url(#terminal-2166091244-line-30)">
</text><text class="terminal-2166091244-r1" x="1464" y="776.4" textLength="12.2" clip-path="url(#terminal-2166091244-line-31)">
</text><text class="terminal-2166091244-r1" x="1464" y="800.8" textLength="12.2" clip-path="url(#terminal-2166091244-line-32)">
</text><text class="terminal-2166091244-r1" x="1464" y="825.2" textLength="12.2" clip-path="url(#terminal-2166091244-line-33)">
</text><text class="terminal-2166091244-r1" x="1464" y="849.6" textLength="12.2" clip-path="url(#terminal-2166091244-line-34)">
</text><text class="terminal-2166091244-r6" x="12.2" y="874" textLength="1207.8" clip-path="url(#terminal-2166091244-line-35)">np:&#160;The&#160;Completely&#160;Different&#160;Otter&#160;Bureau&#160;–&#160;S05E05&#160;–&#160;0:30&#160;|&#160;style:&#160;09-jbrowse-lowcontrast-gray.tcss</text>
    </g>
    </g>
</svg>
