<svg class="rich-terminal" viewBox="0 0 1482 928.4" xmlns="http://www.w3.org/2000/svg">
    <!-- Generated with Rich https://www.textualize.io -->
    <style>

    @font-face {
        font-family: "Fira Code";
        src: local("FiraCode-Regular"),
                url("https://cdnjs.cloudflare.com/ajax/libs/firacode/6.2.0/woff2/FiraCode-Regular.woff2") format("woff2"),
                url("https://cdnjs.cloudflare.com/ajax/libs/firacode/6.2.0/woff/FiraCode-Regular.woff") format("woff");
        font-style: normal;
        font-weight: 400;
    }
    @font-face {
        font-family: "Fira Code";
        src: local("FiraCode-Bold"),
                url("https://cdnjs.cloudflare.com/ajax/libs/firacode/6.2.0/woff2/FiraCode-Bold.woff2") format("woff2"),
                url("https://cdnjs.cloudflare.com/ajax/libs/firacode/6.2.0/woff/FiraCode-Bold.woff") format("woff");
        font-style: bold;
        font-weight: 700;
    }

    .terminal-4245338217-matrix {
        font-family: Fira Code, monospace;
        font-size: 20px;
        line-height: 24.4px;
        font-variant-east-asian: full-width;
    }

    .terminal-4245338217-title {
        font-size: 18px;
        font-weight: bold;
        font-family: arial;
    }

    .terminal-4245338217-r1 { fill: #c5c8c6 }
.terminal-4245338217-r2 { fill: #d5d5d5 }
.terminal-4245338217-r3 { fill: #9b9b9b }
.terminal-4245338217-r4 { fill: #939393 }
.terminal-4245338217-r5 { fill: #141414 }
.terminal-4245338217-r6 { fill: #7c7c7c }
    </style>

    <defs>
    <clipPath id="terminal-4245338217-clip-terminal">
      <rect x="0" y="0" width="1463.0" height="877.4" />
    </clipPath>
    <clipPath id="terminal-4245338217-line-0">
    <rect x="0" y="1.5" width="1464" height="24.65"/>
            </clipPath>
<clipPath id="terminal-4245338217-line-1">
    <rect x="0" y="25.9" width="1464" height="24.65"/>
            </clipPath>
<clipPath id="terminal-4245338217-line-2">
    <rect x="0" y="50.3" width="1464" height="24.65"/>
            </clipPath>
<clipPath id="terminal-4245338217-line-3">
    <rect x="0" y="74.7" width="1464" height="24.65"/>
            </clipPath>
<clipPath id="terminal-4245338217-line-4">
    <rect x="0" y="99.1" width="1464" height="24.65"/>
            </clipPath>
<clipPath id="terminal-4245338217-line-5">
    <rect x="0" y="123.5" width="1464" height="24.65"/>
            </clipPath>
<clipPath id="terminal-4245338217-line-6">
    <rect x="0" y="147.9" width="1464" height="24.65"/>
            </clipPath>
<clipPath id="terminal-4245338217-line-7">
    <rect x="0" y="172.3" width="1464" height="24.65"/>
            </clipPath>
<clipPath id="terminal-4245338217-line-8">
    <rect x="0" y="196.7" width="1464" height="24.65"/>
            </clipPath>
<clipPath id="terminal-4245338217-line-9">
    <rect x="0" y="221.1" width="1464" height="24.65"/>
            </clipPath>
<clipPath id="terminal-4245338217-line-10">
    <rect x="0" y="245.5" width="1464" height="24.65"/>
            </clipPath>
<clipPath id="terminal-4245338217-line-11">
    <rect x="0" y="269.9" width="1464" height="24.65"/>
            </clipPath>
<clipPath id="terminal-4245338217-line-12">
    <rect x="0" y="294.3" width="1464" height="24.65"/>
            </clipPath>
<clipPath id="terminal-4245338217-line-13">
    <rect x="0" y="318.7" width="1464" height="24.65"/>
            </clipPath>
<clipPath id="terminal-4245338217-line-14">
    <rect x="0" y="343.1" width="1464" height="24.65"/>
            </clipPath>
<clipPath id="terminal-4245338217-line-15">
    <rect x="0" y="367.5" width="1464" height="24.65"/>
            </clipPath>
<clipPath id="terminal-4245338217-line-16">
    <rect x="0" y="391.9" width="1464" height="24.65"/>
            </clipPath>
<clipPath id="terminal-4245338217-line-17">
    <rect x="0" y="416.3" width="1464" height="24.65"/>
            </clipPath>
<clipPath id="terminal-4245338217-line-18">
    <rect x="0" y="440.7" width="1464" height="24.65"/>
            </clipPath>
<clipPath id="terminal-4245338217-line-19">
    <rect x="0" y="465.1" width="1464" height="24.65"/>
            </clipPath>
<clipPath id="terminal-4245338217-line-20">
    <rect x="0" y="489.5" width="1464" height="24.65"/>
            </clipPath>
<clipPath id="terminal-4245338217-line-21">
    <rect x="0" y="513.9" width="1464" height="24.65"/>
            </clipPath>
<clipPath id="terminal-4245338217-line-22">
    <rect x="0" y="538.3" width="1464" height="24.65"/>
            </clipPath>
<clipPath id="terminal-4245338217-line-23">
    <rect x="0" y="562.7" width="1464" height="24.65"/>
            </clipPath>
<clipPath id="terminal-4245338217-line-24">
    <rect x="0" y="587.1" width="1464" height="24.65"/>
            </clipPath>
<clipPath id="terminal-4245338217-line-25">
    <rect x="0" y="611.5" width="1464" height="24.65"/>
            </clipPath>
<clipPath id="terminal-4245338217-line-26">
    <rect x="0" y="635.9" width="1464" height="24.65"/>
            </clipPath>
<clipPath id="terminal-4245338217-line-27">
    <rect x="0" y="660.3" width="1464" height="24.65"/>
            </clipPath>
<clipPath id="terminal-4245338217-line-28">
    <rect x="0" y="684.7" width="1464" height="24.65"/>
            </clipPath>
<clipPath id="terminal-4245338217-line-29">
    <rect x="0" y="709.1" width="1464" height="24.65"/>
            </clipPath>
<clipPath id="terminal-4245338217-line-30">
    <rect x="0" y="733.5" width="1464" height="24.65"/>
            </clipPath>
<clipPath id="terminal-4245338217-line-31">
    <rect x="0" y="757.9" width="1464" height="24.65"/>
            </clipPath>
<clipPath id="terminal-4245338217-line-32">
    <rect x="0" y="782.3" width="1464" height="24.65"/>
            </clipPath>
<clipPath id="terminal-4245338217-line-33">
    <rect x="0" y="806.7" width="1464" height="24.65"/>
            </clipPath>
<clipPath id="terminal-4245338217-line-34">
    <rect x="0" y="831.1" width="1464" height="24.65"/>
            </clipPath>
    </defs>

    <rect fill="#292929" stroke="rgba(255,255,255,0.35)" stroke-width="1" x="1" y="1" width="1480" height="926.4" rx="8"/><text class="terminal-4245338217-title" fill="#c5c8c6" text-anchor="middle" x="740" y="27">subtitles.svg&#160;-&#160;04-jbrowse-coffee.tcss</text>
            <g transform="translate(26,22)">
            <circle cx="0" cy="0" r="7" fill="#ff5f57"/>
            <circle cx="22" cy="0" r="7" fill="#febc2e"/>
            <circle cx="44" cy="0" r="7" fill="#28c840"/>
            </g>
        
    <g transform="translate(9, 41)" clip-path="url(#terminal-4245338217-clip-terminal)">
    <rect fill="#222222" x="0" y="1.5" width="12.2" height="24.65" shape-rendering="crispEdges"/><rect fill="#222222" x="12.2" y="1.5" width="1134.6" height="24.65" shape-rendering="crispEdges"/><rect fill="#222222" x="1146.8" y="1.5" width="12.2" height="24.65" shape-rendering="crispEdges"/><rect fill="#141414" x="1159" y="1.5" width="305" height="24.65" shape-rendering="crispEdges"/><rect fill="#1f1f1f" x="0" y="25.9" width="12.2" height="24.65" shape-rendering="crispEdges"/><rect fill="#1f1f1f" x="12.2" y="25.9" width="1439.6" height="24.65" shape-rendering="crispEdges"/><rect fill="#1f1f1f" x="1451.8" y="25.9" width="12.2" height="24.65" shape-rendering="crispEdges"/><rect fill="#141414" x="0" y="50.3" width="12.2" height="24.65" shape-rendering="crispEdges"/><rect fill="#141414" x="12.2" y="50.3" width="1439.6" height="24.65" shape-rendering="crispEdges"/><rect fill="#141414" x="1451.8" y="50.3" width="12.2" height="24.65" shape-rendering="crispEdges"/><rect fill="#141414" x="0" y="74.7" width="12.2" height="24.65" shape-rendering="crispEdges"/><rect fill="#141414" x="12.2" y="74.7" width="1439.6" height="24.65" shape-rendering="crispEdges"/><rect fill="#141414" x="1451.8" y="74.7" width="12.2" height="24.65" shape-rendering="crispEdges"/><rect fill="#141414" x="0" y="99.1" width="12.2" height="24.65" shape-rendering="crispEdges"/><rect fill="#141414" x="12.2" y="99.1" width="1439.6" height="24.65" shape-rendering="crispEdges"/><rect fill="#141414" x="1451.8" y="99.1" width="12.2" height="24.65" shape-rendering="crispEdges"/><rect fill="#141414" x="0" y="123.5" width="12.2" height="24.65" shape-rendering="crispEdges"/><rect fill="#141414" x="12.2" y="123.5" width="1439.6" height="24.65" shape-rendering="crispEdges"/><rect fill="#141414" x="1451.8" y="123.5" width="12.2" height="24.65" shape-rendering="crispEdges"/><rect fill="#141414" x="0" y="147.9" width="12.2" height="24.65" shape-rendering="crispEdges"/><rect fill="#141414" x="12.2" y="147.9" width="1439.6" height="24.65" shape-rendering="crispEdges"/><rect fill="#141414" x="1451.8" y="147.9" width="12.2" height="24.65" shape-rendering="crispEdges"/><rect fill="#141414" x="0" y="172.3" width="12.2" height="24.65" shape-rendering="crispEdges"/><rect fill="#141414" x="12.2" y="172.3" width="1439.6" height="24.65" shape-rendering="crispEdges"/><rect fill="#141414" x="1451.8" y="172.3" width="12.2" height="24.65" shape-rendering="crispEdges"/><rect fill="#141414" x="0" y="196.7" width="12.2" height="24.65" shape-rendering="crispEdges"/><rect fill="#141414" x="12.2" y="196.7" width="1439.6" height="24.65" shape-rendering="crispEdges"/><rect fill="#141414" x="1451.8" y="196.7" width="12.2" height="24.65" shape-rendering="crispEdges"/><rect fill="#141414" x="0" y="221.1" width="12.2" height="24.65" shape-rendering="crispEdges"/><rect fill="#141414" x="12.2" y="221.1" width="1439.6" height="24.65" shape-rendering="crispEdges"/><rect fill="#141414" x="1451.8" y="221.1" width="12.2" height="24.65" shape-rendering="crispEdges"/><rect fill="#141414" x="0" y="245.5" width="12.2" height="24.65" shape-rendering="crispEdges"/><rect fill="#141414" x="12.2" y="245.5" width="1439.6" height="24.65" shape-rendering="crispEdges"/><rect fill="#141414" x="1451.8" y="245.5" width="12.2" height="24.65" shape-rendering="crispEdges"/><rect fill="#141414" x="0" y="269.9" width="12.2" height="24.65" shape-rendering="crispEdges"/><rect fill="#141414" x="12.2" y="269.9" width="1439.6" height="24.65" shape-rendering="crispEdges"/><rect fill="#141414" x="1451.8" y="269.9" width="12.2" height="24.65" shape-rendering="crispEdges"/><rect fill="#141414" x="0" y="294.3" width="12.2" height="24.65" shape-rendering="crispEdges"/><rect fill="#141414" x="12.2" y="294.3" width="1439.6" height="24.65" shape-rendering="crispEdges"/><rect fill="#141414" x="1451.8" y="294.3" width="12.2" height="24.65" shape-rendering="crispEdges"/><rect fill="#141414" x="0" y="318.7" width="12.2" height="24.65" shape-rendering="crispEdges"/><rect fill="#141414" x="12.2" y="318.7" width="402.6" height="24.65" shape-rendering="crispEdges"/><rect fill="#141414" x="414.8" y="318.7" width="24.4" height="24.65" shape-rendering="crispEdges"/><rect fill="#141414" x="439.2" y="318.7" width="219.6" height="24.65" shape-rendering="crispEdges"/><rect fill="#141414" x="658.8" y="318.7" width="134.2" height="24.65" shape-rendering="crispEdges"/><rect fill="#141414" x="793" y="318.7" width="219.6" height="24.65" shape-rendering="crispEdges"/><rect fill="#141414" x="1012.6" y="318.7" width="24.4" height="24.65" shape-rendering="crispEdges"/><rect fill="#141414" x="1037" y="318.7" width="414.8" height="24.65" shape-rendering="crispEdges"/><rect fill="#141414" x="1451.8" y="318.7" width="12.2" height="24.65" shape-rendering="crispEdges"/><rect fill="#141414" x="0" y="343.1" width="12.2" height="24.65" shape-rendering="crispEdges"/><rect fill="#141414" x="12.2" y="343.1" width="402.6" height="24.65" shape-rendering="crispEdges"/><rect fill="#141414" x="414.8" y="343.1" width="12.2" height="24.65" shape-rendering="crispEdges"/><rect fill="#141414" x="427" y="343.1" width="597.8" height="24.65" shape-rendering="crispEdges"/><rect fill="#141414" x="1024.8" y="343.1" width="12.2" height="24.65" shape-rendering="crispEdges"/><rect fill="#141414" x="1037" y="343.1" width="414.8" height="24.65" shape-rendering="crispEdges"/><rect fill="#141414" x="1451.8" y="343.1" width="12.2" height="24.65" shape-rendering="crispEdges"/><rect fill="#141414" x="0" y="367.5" width="12.2" height="24.65" shape-rendering="crispEdges"/><rect fill="#141414" x="12.2" y="367.5" width="402.6" height="24.65" shape-rendering="crispEdges"/><rect fill="#141414" x="414.8" y="367.5" width="12.2" height="24.65" shape-rendering="crispEdges"/><rect fill="#141414" x="427" y="367.5" width="24.4" height="24.65" shape-rendering="crispEdges"/><rect fill="#141414" x="451.4" y="367.5" width="549" height="24.65" shape-rendering="crispEdges"/><rect fill="#141414" x="1000.4" y="367.5" width="24.4" height="24.65" shape-rendering="crispEdges"/><rect fill="#141414" x="1024.8" y="367.5" width="12.2" height="24.65" shape-rendering="crispEdges"/><rect fill="#141414" x="1037" y="367.5" width="414.8" height="24.65" shape-rendering="crispEdges"/><rect fill="#141414" x="1451.8" y="367.5" width="12.2" height="24.65" shape-rendering="crispEdges"/><rect fill="#141414" x="0" y="391.9" width="12.2" height="24.65" shape-rendering="crispEdges"/><rect fill="#141414" x="12.2" y="391.9" width="402.6" height="24.65" shape-rendering="crispEdges"/><rect fill="#141414" x="414.8" y="391.9" width="12.2" height="24.65" shape-rendering="crispEdges"/><rect fill="#141414" x="427" y="391.9" width="24.4" height="24.65" shape-rendering="crispEdges"/><rect fill="#141414" x="451.4" y="391.9" width="549" height="24.65" shape-rendering="crispEdges"/><rect fill="#141414" x="1000.4" y="391.9" width="24.4" height="24.65" shape-rendering="crispEdges"/><rect fill="#141414" x="1024.8" y="391.9" width="12.2" height="24.65" shape-rendering="crispEdges"/><rect fill="#141414" x="1037" y="391.9" width="414.8" height="24.65" shape-rendering="crispEdges"/><rect fill="#141414" x="1451.8" y="391.9" width="12.2" height="24.65" shape-rendering="crispEdges"/><rect fill="#141414" x="0" y="416.3" width="12.2" height="24.65" shape-rendering="crispEdges"/><rect fill="#141414" x="12.2" y="416.3" width="402.6" height="24.65" shape-rendering="crispEdges"/><rect fill="#141414" x="414.8" y="416.3" width="12.2" height="24.65" shape-rendering="crispEdges"/><rect fill="#141414" x="427" y="416.3" width="24.4" height="24.65" shape-rendering="crispEdges"/><rect fill="#d5d5d5" x="451.4" y="416.3" width="73.2" height="24.65" shape-rendering="crispEdges"/><rect fill="#141414" x="524.6" y="416.3" width="475.8" height="24.65" shape-rendering="crispEdges"/><rect fill="#141414" x="1000.4" y="416.3" width="24.4" height="24.65" shape-rendering="crispEdges"/><rect fill="#141414" x="1024.8" y="416.3" width="12.2" height="24.65" shape-rendering="crispEdges"/><rect fill="#141414" x="1037" y="416.3" width="414.8" height="24.65" shape-rendering="crispEdges"/><rect fill="#141414" x="1451.8" y="416.3" width="12.2" height="24.65" shape-rendering="crispEdges"/><rect fill="#141414" x="0" y="440.7" width="12.2" height="24.65" shape-rendering="crispEdges"/><rect fill="#141414" x="12.2" y="440.7" width="402.6" height="24.65" shape-rendering="crispEdges"/><rect fill="#141414" x="414.8" y="440.7" width="12.2" height="24.65" shape-rendering="crispEdges"/><rect fill="#141414" x="427" y="440.7" width="24.4" height="24.65" shape-rendering="crispEdges"/><rect fill="#141414" x="451.4" y="440.7" width="73.2" height="24.65" shape-rendering="crispEdges"/><rect fill="#141414" x="524.6" y="440.7" width="475.8" height="24.65" shape-rendering="crispEdges"/><rect fill="#141414" x="1000.4" y="440.7" width="24.4" height="24.65" shape-rendering="crispEdges"/><rect fill="#141414" x="1024.8" y="440.7" width="12.2" height="24.65" shape-rendering="crispEdges"/><rect fill="#141414" x="1037" y="440.7" width="414.8" height="24.65" shape-rendering="crispEdges"/><rect fill="#141414" x="1451.8" y="440.7" width="12.2" height="24.65" shape-rendering="crispEdges"/><rect fill="#141414" x="0" y="465.1" width="12.2" height="24.65" shape-rendering="crispEdges"/><rect fill="#141414" x="12.2" y="465.1" width="402.6" height="24.65" shape-rendering="crispEdges"/><rect fill="#141414" x="414.8" y="465.1" width="12.2" height="24.65" shape-rendering="crispEdges"/><rect fill="#141414" x="427" y="465.1" width="24.4" height="24.65" shape-rendering="crispEdges"/><rect fill="#141414" x="451.4" y="465.1" width="475.8" height="24.65" shape-rendering="crispEdges"/><rect fill="#141414" x="927.2" y="465.1" width="73.2" height="24.65" shape-rendering="crispEdges"/><rect fill="#141414" x="1000.4" y="465.1" width="24.4" height="24.65" shape-rendering="crispEdges"/><rect fill="#141414" x="1024.8" y="465.1" width="12.2" height="24.65" shape-rendering="crispEdges"/><rect fill="#141414" x="1037" y="465.1" width="414.8" height="24.65" shape-rendering="crispEdges"/><rect fill="#141414" x="1451.8" y="465.1" width="12.2" height="24.65" shape-rendering="crispEdges"/><rect fill="#141414" x="0" y="489.5" width="12.2" height="24.65" shape-rendering="crispEdges"/><rect fill="#141414" x="12.2" y="489.5" width="402.6" height="24.65" shape-rendering="crispEdges"/><rect fill="#141414" x="414.8" y="489.5" width="12.2" height="24.65" shape-rendering="crispEdges"/><rect fill="#141414" x="427" y="489.5" width="24.4" height="24.65" shape-rendering="crispEdges"/><rect fill="#141414" x="451.4" y="489.5" width="366" height="24.65" shape-rendering="crispEdges"/><rect fill="#141414" x="817.4" y="489.5" width="183" height="24.65" shape-rendering="crispEdges"/><rect fill="#141414" x="1000.4" y="489.5" width="24.4" height="24.65" shape-rendering="crispEdges"/><rect fill="#141414" x="1024.8" y="489.5" width="12.2" height="24.65" shape-rendering="crispEdges"/><rect fill="#141414" x="1037" y="489.5" width="414.8" height="24.65" shape-rendering="crispEdges"/><rect fill="#141414" x="1451.8" y="489.5" width="12.2" height="24.65" shape-rendering="crispEdges"/><rect fill="#141414" x="0" y="513.9" width="12.2" height="24.65" shape-rendering="crispEdges"/><rect fill="#141414" x="12.2" y="513.9" width="402.6" height="24.65" shape-rendering="crispEdges"/><rect fill="#141414" x="414.8" y="513.9" width="12.2" height="24.65" shape-rendering="crispEdges"/><rect fill="#141414" x="427" y="513.9" width="597.8" height="24.65" shape-rendering="crispEdges"/><rect fill="#141414" x="1024.8" y="513.9" width="12.2" height="24.65" shape-rendering="crispEdges"/><rect fill="#141414" x="1037" y="513.9" width="414.8" height="24.65" shape-rendering="crispEdges"/><rect fill="#141414" x="1451.8" y="513.9" width="12.2" height="24.65" shape-rendering="crispEdges"/><rect fill="#141414" x="0" y="538.3" width="12.2" height="24.65" shape-rendering="crispEdges"/><rect fill="#141414" x="12.2" y="538.3" width="402.6" height="24.65" shape-rendering="crispEdges"/><rect fill="#141414" x="414.8" y="538.3" width="622.2" height="24.65" shape-rendering="crispEdges"/><rect fill="#141414" x="1037" y="538.3" width="414.8" height="24.65" shape-rendering="crispEdges"/><rect fill="#141414" x="1451.8" y="538.3" width="12.2" height="24.65" shape-rendering="crispEdges"/><rect fill="#141414" x="0" y="562.7" width="12.2" height="24.65" shape-rendering="crispEdges"/><rect fill="#141414" x="12.2" y="562.7" width="1439.6" height="24.65" shape-rendering="crispEdges"/><rect fill="#141414" x="1451.8" y="562.7" width="12.2" height="24.65" shape-rendering="crispEdges"/><rect fill="#141414" x="0" y="587.1" width="12.2" height="24.65" shape-rendering="crispEdges"/><rect fill="#141414" x="12.2" y="587.1" width="1439.6" height="24.65" shape-rendering="crispEdges"/><rect fill="#141414" x="1451.8" y="587.1" width="12.2" height="24.65" shape-rendering="crispEdges"/><rect fill="#141414" x="0" y="611.5" width="12.2" height="24.65" shape-rendering="crispEdges"/><rect fill="#141414" x="12.2" y="611.5" width="1439.6" height="24.65" shape-rendering="crispEdges"/><rect fill="#141414" x="1451.8" y="611.5" width="12.2" height="24.65" shape-rendering="crispEdges"/><rect fill="#141414" x="0" y="635.9" width="12.2" height="24.65" shape-rendering="crispEdges"/><rect fill="#141414" x="12.2" y="635.9" width="1439.6" height="24.65" shape-rendering="crispEdges"/><rect fill="#141414" x="1451.8" y="635.9" width="12.2" height="24.65" shape-rendering="crispEdges"/><rect fill="#141414" x="0" y="660.3" width="12.2" height="24.65" shape-rendering="crispEdges"/><rect fill="#141414" x="12.2" y="660.3" width="1439.6" height="24.65" shape-rendering="crispEdges"/><rect fill="#141414" x="1451.8" y="660.3" width="12.2" height="24.65" shape-rendering="crispEdges"/><rect fill="#141414" x="0" y="684.7" width="12.2" height="24.65" shape-rendering="crispEdges"/><rect fill="#141414" x="12.2" y="684.7" width="1439.6" height="24.65" shape-rendering="crispEdges"/><rect fill="#141414" x="1451.8" y="684.7" width="12.2" height="24.65" shape-rendering="crispEdges"/><rect fill="#141414" x="0" y="709.1" width="12.2" height="24.65" shape-rendering="crispEdges"/><rect fill="#141414" x="12.2" y="709.1" width="1439.6" height="24.65" shape-rendering="crispEdges"/><rect fill="#141414" x="1451.8" y="709.1" width="12.2" height="24.65" shape-rendering="crispEdges"/><rect fill="#141414" x="0" y="733.5" width="12.2" height="24.65" shape-rendering="crispEdges"/><rect fill="#141414" x="12.2" y="733.5" width="1439.6" height="24.65" shape-rendering="crispEdges"/><rect fill="#141414" x="1451.8" y="733.5" width="12.2" height="24.65" shape-rendering="crispEdges"/><rect fill="#141414" x="0" y="757.9" width="12.2" height="24.65" shape-rendering="crispEdges"/><rect fill="#141414" x="12.2" y="757.9" width="1439.6" height="24.65" shape-rendering="crispEdges"/><rect fill="#141414" x="1451.8" y="757.9" width="12.2" height="24.65" shape-rendering="crispEdges"/><rect fill="#141414" x="0" y="782.3" width="12.2" height="24.65" shape-rendering="crispEdges"/><rect fill="#141414" x="12.2" y="782.3" width="1439.6" height="24.65" shape-rendering="crispEdges"/><rect fill="#141414" x="1451.8" y="782.3" width="12.2" height="24.65" shape-rendering="crispEdges"/><rect fill="#141414" x="0" y="806.7" width="12.2" height="24.65" shape-rendering="crispEdges"/><rect fill="#141414" x="12.2" y="806.7" width="1439.6" height="24.65" shape-rendering="crispEdges"/><rect fill="#141414" x="1451.8" y="806.7" width="12.2" height="24.65" shape-rendering="crispEdges"/><rect fill="#141414" x="0" y="831.1" width="12.2" height="24.65" shape-rendering="crispEdges"/><rect fill="#141414" x="12.2" y="831.1" width="1439.6" height="24.65" shape-rendering="crispEdges"/><rect fill="#141414" x="1451.8" y="831.1" width="12.2" height="24.65" shape-rendering="crispEdges"/><rect fill="#141414" x="0" y="855.5" width="12.2" height="24.65" shape-rendering="crispEdges"/><rect fill="#141414" x="12.2" y="855.5" width="561.2" height="24.65" shape-rendering="crispEdges"/><rect fill="#141414" x="573.4" y="855.5" width="12.2" height="24.65" shape-rendering="crispEdges"/><rect fill="#141414" x="585.6" y="855.5" width="878.4" height="24.65" shape-rendering="crispEdges"/>
    <g class="terminal-4245338217-matrix">
    <text class="terminal-4245338217-r2" x="12.2" y="20" textLength="1134.6" clip-path="url(#terminal-4245338217-line-0)">sort:&#160;recently&#160;added&#160;↓&#160;|&#160;5000&#160;loaded&#160;|&#160;5000&#160;matched&#160;|&#160;showing&#160;5000&#160;|&#160;display:&#160;title&#160;|&#160;F1&#160;help</text><text class="terminal-4245338217-r1" x="1464" y="20" textLength="12.2" clip-path="url(#terminal-4245338217-line-0)">
</text><text class="terminal-4245338217-r1" x="1464" y="44.4" textLength="12.2" clip-path="url(#terminal-4245338217-line-1)">
</text><text class="terminal-4245338217-r1" x="1464" y="68.8" textLength="12.2" clip-path="url(#terminal-4245338217-line-2)">
</text><text class="terminal-4245338217-r1" x="1464" y="93.2" textLength="12.2" clip-path="url(#terminal-4245338217-line-3)">
</text><text class="terminal-4245338217-r1" x="1464" y="117.6" textLength="12.2" clip-path="url(#terminal-4245338217-line-4)">
</text><text class="terminal-4245338217-r1" x="1464" y="142" textLength="12.2" clip-path="url(#terminal-4245338217-line-5)">
</text><text class="terminal-4245338217-r1" x="1464" y="166.4" textLength="12.2" clip-path="url(#terminal-4245338217-line-6)">
</text><text class="terminal-4245338217-r1" x="1464" y="190.8" textLength="12.2" clip-path="url(#terminal-4245338217-line-7)">
</text><text class="terminal-4245338217-r1" x="1464" y="215.2" textLength="12.2" clip-path="url(#terminal-4245338217-line-8)">
</text><text class="terminal-4245338217-r1" x="1464" y="239.6" textLength="12.2" clip-path="url(#terminal-4245338217-line-9)">
</text><text class="terminal-4245338217-r1" x="1464" y="264" textLength="12.2" clip-path="url(#terminal-4245338217-line-10)">
</text><text class="terminal-4245338217-r1" x="1464" y="288.4" textLength="12.2" clip-path="url(#terminal-4245338217-line-11)">
</text><text class="terminal-4245338217-r1" x="1464" y="312.8" textLength="12.2" clip-path="url(#terminal-4245338217-line-12)">
</text><text class="terminal-4245338217-r4" x="414.8" y="337.2" textLength="24.4" clip-path="url(#terminal-4245338217-line-13)">╭─</text><text class="terminal-4245338217-r4" x="439.2" y="337.2" textLength="219.6" clip-path="url(#terminal-4245338217-line-13)">──────────────────</text><text class="terminal-4245338217-r4" x="658.8" y="337.2" textLength="134.2" clip-path="url(#terminal-4245338217-line-13)">&#160;Subtitles&#160;</text><text class="terminal-4245338217-r4" x="793" y="337.2" textLength="219.6" clip-path="url(#terminal-4245338217-line-13)">──────────────────</text><text class="terminal-4245338217-r4" x="1012.6" y="337.2" textLength="24.4" clip-path="url(#terminal-4245338217-line-13)">─╮</text><text class="terminal-4245338217-r1" x="1464" y="337.2" textLength="12.2" clip-path="url(#terminal-4245338217-line-13)">
</text><text class="terminal-4245338217-r4" x="414.8" y="361.6" textLength="12.2" clip-path="url(#terminal-4245338217-line-14)">│</text><text class="terminal-4245338217-r4" x="1024.8" y="361.6" textLength="12.2" clip-path="url(#terminal-4245338217-line-14)">│</text><text class="terminal-4245338217-r1" x="1464" y="361.6" textLength="12.2" clip-path="url(#terminal-4245338217-line-14)">
</text><text class="terminal-4245338217-r4" x="414.8" y="386" textLength="12.2" clip-path="url(#terminal-4245338217-line-15)">│</text><text class="terminal-4245338217-r4" x="451.4" y="386" textLength="549" clip-path="url(#terminal-4245338217-line-15)">↑/↓&#160;select&#160;|&#160;Enter&#160;apply&#160;|&#160;q/backspace&#160;cancel</text><text class="terminal-4245338217-r4" x="1024.8" y="386" textLength="12.2" clip-path="url(#terminal-4245338217-line-15)">│</text><text class="terminal-4245338217-r1" x="1464" y="386" textLength="12.2" clip-path="url(#terminal-4245338217-line-15)">
</text><text class="terminal-4245338217-r4" x="414.8" y="410.4" textLength="12.2" clip-path="url(#terminal-4245338217-line-16)">│</text><text class="terminal-4245338217-r4" x="1024.8" y="410.4" textLength="12.2" clip-path="url(#terminal-4245338217-line-16)">│</text><text class="terminal-4245338217-r1" x="1464" y="410.4" textLength="12.2" clip-path="url(#terminal-4245338217-line-16)">
</text><text class="terminal-4245338217-r4" x="414.8" y="434.8" textLength="12.2" clip-path="url(#terminal-4245338217-line-17)">│</text><text class="terminal-4245338217-r5" x="451.4" y="434.8" textLength="73.2" clip-path="url(#terminal-4245338217-line-17)">✓&#160;auto</text><text class="terminal-4245338217-r4" x="1024.8" y="434.8" textLength="12.2" clip-path="url(#terminal-4245338217-line-17)">│</text><text class="terminal-4245338217-r1" x="1464" y="434.8" textLength="12.2" clip-path="url(#terminal-4245338217-line-17)">
</text><text class="terminal-4245338217-r4" x="414.8" y="459.2" textLength="12.2" clip-path="url(#terminal-4245338217-line-18)">│</text><text class="terminal-4245338217-r2" x="451.4" y="459.2" textLength="73.2" clip-path="url(#terminal-4245338217-line-18)">&#160;&#160;none</text><text class="terminal-4245338217-r4" x="1024.8" y="459.2" textLength="12.2" clip-path="url(#terminal-4245338217-line-18)">│</text><text class="terminal-4245338217-r1" x="1464" y="459.2" textLength="12.2" clip-path="url(#terminal-4245338217-line-18)">
</text><text class="terminal-4245338217-r4" x="414.8" y="483.6" textLength="12.2" clip-path="url(#terminal-4245338217-line-19)">│</text><text class="terminal-4245338217-r2" x="451.4" y="483.6" textLength="475.8" clip-path="url(#terminal-4245338217-line-19)">&#160;&#160;English&#160;SDH&#160;-&#160;SRT&#160;-&#160;Default&#160;(default)</text><text class="terminal-4245338217-r4" x="1024.8" y="483.6" textLength="12.2" clip-path="url(#terminal-4245338217-line-19)">│</text><text class="terminal-4245338217-r1" x="1464" y="483.6" textLength="12.2" clip-path="url(#terminal-4245338217-line-19)">
</text><text class="terminal-4245338217-r4" x="414.8" y="508" textLength="12.2" clip-path="url(#terminal-4245338217-line-20)">│</text><text class="terminal-4245338217-r2" x="451.4" y="508" textLength="366" clip-path="url(#terminal-4245338217-line-20)">&#160;&#160;Commentary&#160;Captions&#160;-&#160;WebVTT</text><text class="terminal-4245338217-r4" x="1024.8" y="508" textLength="12.2" clip-path="url(#terminal-4245338217-line-20)">│</text><text class="terminal-4245338217-r1" x="1464" y="508" textLength="12.2" clip-path="url(#terminal-4245338217-line-20)">
</text><text class="terminal-4245338217-r4" x="414.8" y="532.4" textLength="12.2" clip-path="url(#terminal-4245338217-line-21)">│</text><text class="terminal-4245338217-r4" x="1024.8" y="532.4" textLength="12.2" clip-path="url(#terminal-4245338217-line-21)">│</text><text class="terminal-4245338217-r1" x="1464" y="532.4" textLength="12.2" clip-path="url(#terminal-4245338217-line-21)">
</text><text class="terminal-4245338217-r4" x="414.8" y="556.8" textLength="622.2" clip-path="url(#terminal-4245338217-line-22)">╰─────────────────────────────────────────────────╯</text><text class="terminal-4245338217-r1" x="1464" y="556.8" textLength="12.2" clip-path="url(#terminal-4245338217-line-22)">
</text><text class="terminal-4245338217-r1" x="1464" y="581.2" textLength="12.2" clip-path="url(#terminal-4245338217-line-23)">
</text><text class="terminal-4245338217-r1" x="1464" y="605.6" textLength="12.2" clip-path="url(#terminal-4245338217-line-24)">
</text><text class="terminal-4245338217-r1" x="1464" y="630" textLength="12.2" clip-path="url(#terminal-4245338217-line-25)">
</text><text class="terminal-4245338217-r1" x="1464" y="654.4" textLength="12.2" clip-path="url(#terminal-4245338217-line-26)">
</text><text class="terminal-4245338217-r1" x="1464" y="678.8" textLength="12.2" clip-path="url(#terminal-4245338217-line-27)">
</text><text class="terminal-4245338217-r1" x="1464" y="703.2" textLength="12.2" clip-path="url(#terminal-4245338217-line-28)">
</text><text class="terminal-4245338217-r1" x="1464" y="727.6" textLength="12.2" clip-path="url(#terminal-4245338217-line-29)">
</text><text class="terminal-4245338217-r1" x="1464" y="752" textLength="12.2" clip-path="url(#terminal-4245338217-line-30)">
</text><text class="terminal-4245338217-r1" x="1464" y="776.4" textLength="12.2" clip-path="url(#terminal-4245338217-line-31)">
</text><text class="terminal-4245338217-r1" x="1464" y="800.8" textLength="12.2" clip-path="url(#terminal-4245338217-line-32)">
</text><text class="terminal-4245338217-r1" x="1464" y="825.2" textLength="12.2" clip-path="url(#terminal-4245338217-line-33)">
</text><text class="terminal-4245338217-r1" x="1464" y="849.6" textLength="12.2" clip-path="url(#terminal-4245338217-line-34)">
</text><text class="terminal-4245338217-r6" x="12.2" y="874" textLength="561.2" clip-path="url(#terminal-4245338217-line-35)">subtitle:&#160;auto&#160;|&#160;style:&#160;04-jbrowse-coffee.tcss</text>
    </g>
    </g>
</svg>
