<svg class="rich-terminal" viewBox="0 0 1482 928.4" xmlns="http://www.w3.org/2000/svg">
    <!-- Generated with Rich https://www.textualize.io -->
    <style>

    @font-face {
        font-family: "Fira Code";
        src: local("FiraCode-Regular"),
                url("https://cdnjs.cloudflare.com/ajax/libs/firacode/6.2.0/woff2/FiraCode-Regular.woff2") format("woff2"),
                url("https://cdnjs.cloudflare.com/ajax/libs/firacode/6.2.0/woff/FiraCode-Regular.woff") format("woff");
        font-style: normal;
        font-weight: 400;
    }
    @font-face {
        font-family: "Fira Code";
        src: local("FiraCode-Bold"),
                url("https://cdnjs.cloudflare.com/ajax/libs/firacode/6.2.0/woff2/FiraCode-Bold.woff2") format("woff2"),
                url("https://cdnjs.cloudflare.com/ajax/libs/firacode/6.2.0/woff/FiraCode-Bold.woff") format("woff");
        font-style: bold;
        font-weight: 700;
    }

    .terminal-272484351-matrix {
        font-family: Fira Code, monospace;
        font-size: 20px;
        line-height: 24.4px;
        font-variant-east-asian: full-width;
    }

    .terminal-272484351-title {
        font-size: 18px;
        font-weight: bold;
        font-family: arial;
    }

    .terminal-272484351-r1 { fill: #c5c8c6 }
.terminal-272484351-r2 { fill: #e3d5d5 }
.terminal-272484351-r3 { fill: #171111 }
.terminal-272484351-r4 { fill: #8b7474 }
    </style>

    <defs>
    <clipPath id="terminal-272484351-clip-terminal">
      <rect x="0" y="0" width="1463.0" height="877.4" />
    </clipPath>
    <clipPath id="terminal-272484351-line-0">
    <rect x="0" y="1.5" width="1464" height="24.65"/>
            </clipPath>
<clipPath id="terminal-272484351-line-1">
    <rect x="0" y="25.9" width="1464" height="24.65"/>
            </clipPath>
<clipPath id="terminal-272484351-line-2">
    <rect x="0" y="50.3" width="1464" height="24.65"/>
            </clipPath>
<clipPath id="terminal-272484351-line-3">
    <rect x="0" y="74.7" width="1464" height="24.65"/>
            </clipPath>
<clipPath id="terminal-272484351-line-4">
    <rect x="0" y="99.1" width="1464" height="24.65"/>
            </clipPath>
<clipPath id="terminal-272484351-line-5">
    <rect x="0" y="123.5" width="1464" height="24.65"/>
            </clipPath>
<clipPath id="terminal-272484351-line-6">
    <rect x="0" y="147.9" width="1464" height="24.65"/>
            </clipPath>
<clipPath id="terminal-272484351-line-7">
    <rect x="0" y="172.3" width="1464" height="24.65"/>
            </clipPath>
<clipPath id="terminal-272484351-line-8">
    <rect x="0" y="196.7" width="1464" height="24.65"/>
            </clipPath>
<clipPath id="terminal-272484351-line-9">
    <rect x="0" y="221.1" width="1464" height="24.65"/>
            </clipPath>
<clipPath id="terminal-272484351-line-10">
    <rect x="0" y="245.5" width="1464" height="24.65"/>
            </clipPath>
<clipPath id="terminal-272484351-line-11">
    <rect x="0" y="269.9" width="1464" height="24.65"/>
            </clipPath>
<clipPath id="terminal-272484351-line-12">
    <rect x="0" y="294.3" width="1464" height="24.65"/>
            </clipPath>
<clipPath id="terminal-272484351-line-13">
    <rect x="0" y="318.7" width="1464" height="24.65"/>
            </clipPath>
<clipPath id="terminal-272484351-line-14">
    <rect x="0" y="343.1" width="1464" height="24.65"/>
            </clipPath>
<clipPath id="terminal-272484351-line-15">
    <rect x="0" y="367.5" width="1464" height="24.65"/>
            </clipPath>
<clipPath id="terminal-272484351-line-16">
    <rect x="0" y="391.9" width="1464" height="24.65"/>
            </clipPath>
<clipPath id="terminal-272484351-line-17">
    <rect x="0" y="416.3" width="1464" height="24.65"/>
            </clipPath>
<clipPath id="terminal-272484351-line-18">
    <rect x="0" y="440.7" width="1464" height="24.65"/>
            </clipPath>
<clipPath id="terminal-272484351-line-19">
    <rect x="0" y="465.1" width="1464" height="24.65"/>
            </clipPath>
<clipPath id="terminal-272484351-line-20">
    <rect x="0" y="489.5" width="1464" height="24.65"/>
            </clipPath>
<clipPath id="terminal-272484351-line-21">
    <rect x="0" y="513.9" width="1464" height="24.65"/>
            </clipPath>
<clipPath id="terminal-272484351-line-22">
    <rect x="0" y="538.3" width="1464" height="24.65"/>
            </clipPath>
<clipPath id="terminal-272484351-line-23">
    <rect x="0" y="562.7" width="1464" height="24.65"/>
            </clipPath>
<clipPath id="terminal-272484351-line-24">
    <rect x="0" y="587.1" width="1464" height="24.65"/>
            </clipPath>
<clipPath id="terminal-272484351-line-25">
    <rect x="0" y="611.5" width="1464" height="24.65"/>
            </clipPath>
<clipPath id="terminal-272484351-line-26">
    <rect x="0" y="635.9" width="1464" height="24.65"/>
            </clipPath>
<clipPath id="terminal-272484351-line-27">
    <rect x="0" y="660.3" width="1464" height="24.65"/>
            </clipPath>
<clipPath id="terminal-272484351-line-28">
    <rect x="0" y="684.7" width="1464" height="24.65"/>
            </clipPath>
<clipPath id="terminal-272484351-line-29">
    <rect x="0" y="709.1" width="1464" height="24.65"/>
            </clipPath>
<clipPath id="terminal-272484351-line-30">
    <rect x="0" y="733.5" width="1464" height="24.65"/>
            </clipPath>
<clipPath id="terminal-272484351-line-31">
    <rect x="0" y="757.9" width="1464" height="24.65"/>
            </clipPath>
<clipPath id="terminal-272484351-line-32">
    <rect x="0" y="782.3" width="1464" height="24.65"/>
            </clipPath>
<clipPath id="terminal-272484351-line-33">
    <rect x="0" y="806.7" width="1464" height="24.65"/>
            </clipPath>
<clipPath id="terminal-272484351-line-34">
    <rect x="0" y="831.1" width="1464" height="24.65"/>
            </clipPath>
    </defs>

    <rect fill="#292929" stroke="rgba(255,255,255,0.35)" stroke-width="1" x="1" y="1" width="1480" height="926.4" rx="8"/><text class="terminal-272484351-title" fill="#c5c8c6" text-anchor="middle" x="740" y="27">15-jbrowse-rosewood.svg&#160;-&#160;15-jbrowse-rosewood.tcss</text>
            <g transform="translate(26,22)">
            <circle cx="0" cy="0" r="7" fill="#ff5f57"/>
            <circle cx="22" cy="0" r="7" fill="#febc2e"/>
            <circle cx="44" cy="0" r="7" fill="#28c840"/>
            </g>
        
    <g transform="translate(9, 41)" clip-path="url(#terminal-272484351-clip-terminal)">
    <rect fill="#2b2020" x="0" y="1.5" width="12.2" height="24.65" shape-rendering="crispEdges"/><rect fill="#2b2020" x="12.2" y="1.5" width="1122.4" height="24.65" shape-rendering="crispEdges"/><rect fill="#2b2020" x="1134.6" y="1.5" width="12.2" height="24.65" shape-rendering="crispEdges"/><rect fill="#171111" x="1146.8" y="1.5" width="317.2" height="24.65" shape-rendering="crispEdges"/><rect fill="#3b2828" x="0" y="25.9" width="12.2" height="24.65" shape-rendering="crispEdges"/><rect fill="#3b2828" x="12.2" y="25.9" width="1439.6" height="24.65" shape-rendering="crispEdges"/><rect fill="#3b2828" x="1451.8" y="25.9" width="12.2" height="24.65" shape-rendering="crispEdges"/><rect fill="#171111" x="0" y="50.3" width="12.2" height="24.65" shape-rendering="crispEdges"/><rect fill="#171111" x="12.2" y="50.3" width="1159" height="24.65" shape-rendering="crispEdges"/><rect fill="#171111" x="1171.2" y="50.3" width="280.6" height="24.65" shape-rendering="crispEdges"/><rect fill="#171111" x="1451.8" y="50.3" width="12.2" height="24.65" shape-rendering="crispEdges"/><rect fill="#171111" x="0" y="74.7" width="12.2" height="24.65" shape-rendering="crispEdges"/><rect fill="#171111" x="12.2" y="74.7" width="1244.4" height="24.65" shape-rendering="crispEdges"/><rect fill="#171111" x="1256.6" y="74.7" width="195.2" height="24.65" shape-rendering="crispEdges"/><rect fill="#171111" x="1451.8" y="74.7" width="12.2" height="24.65" shape-rendering="crispEdges"/><rect fill="#171111" x="0" y="99.1" width="12.2" height="24.65" shape-rendering="crispEdges"/><rect fill="#171111" x="12.2" y="99.1" width="549" height="24.65" shape-rendering="crispEdges"/><rect fill="#171111" x="561.2" y="99.1" width="890.6" height="24.65" shape-rendering="crispEdges"/><rect fill="#171111" x="1451.8" y="99.1" width="12.2" height="24.65" shape-rendering="crispEdges"/><rect fill="#171111" x="0" y="123.5" width="12.2" height="24.65" shape-rendering="crispEdges"/><rect fill="#171111" x="12.2" y="123.5" width="597.8" height="24.65" shape-rendering="crispEdges"/><rect fill="#171111" x="610" y="123.5" width="841.8" height="24.65" shape-rendering="crispEdges"/><rect fill="#171111" x="1451.8" y="123.5" width="12.2" height="24.65" shape-rendering="crispEdges"/><rect fill="#171111" x="0" y="147.9" width="12.2" height="24.65" shape-rendering="crispEdges"/><rect fill="#171111" x="12.2" y="147.9" width="1012.6" height="24.65" shape-rendering="crispEdges"/><rect fill="#171111" x="1024.8" y="147.9" width="427" height="24.65" shape-rendering="crispEdges"/><rect fill="#171111" x="1451.8" y="147.9" width="12.2" height="24.65" shape-rendering="crispEdges"/><rect fill="#171111" x="0" y="172.3" width="12.2" height="24.65" shape-rendering="crispEdges"/><rect fill="#171111" x="12.2" y="172.3" width="1085.8" height="24.65" shape-rendering="crispEdges"/><rect fill="#171111" x="1098" y="172.3" width="353.8" height="24.65" shape-rendering="crispEdges"/><rect fill="#171111" x="1451.8" y="172.3" width="12.2" height="24.65" shape-rendering="crispEdges"/><rect fill="#171111" x="0" y="196.7" width="12.2" height="24.65" shape-rendering="crispEdges"/><rect fill="#171111" x="12.2" y="196.7" width="1049.2" height="24.65" shape-rendering="crispEdges"/><rect fill="#171111" x="1061.4" y="196.7" width="390.4" height="24.65" shape-rendering="crispEdges"/><rect fill="#171111" x="1451.8" y="196.7" width="12.2" height="24.65" shape-rendering="crispEdges"/><rect fill="#171111" x="0" y="221.1" width="12.2" height="24.65" shape-rendering="crispEdges"/><rect fill="#171111" x="12.2" y="221.1" width="1195.6" height="24.65" shape-rendering="crispEdges"/><rect fill="#171111" x="1207.8" y="221.1" width="244" height="24.65" shape-rendering="crispEdges"/><rect fill="#171111" x="1451.8" y="221.1" width="12.2" height="24.65" shape-rendering="crispEdges"/><rect fill="#171111" x="0" y="245.5" width="12.2" height="24.65" shape-rendering="crispEdges"/><rect fill="#171111" x="12.2" y="245.5" width="1415.2" height="24.65" shape-rendering="crispEdges"/><rect fill="#171111" x="1427.4" y="245.5" width="24.4" height="24.65" shape-rendering="crispEdges"/><rect fill="#171111" x="1451.8" y="245.5" width="12.2" height="24.65" shape-rendering="crispEdges"/><rect fill="#171111" x="0" y="269.9" width="12.2" height="24.65" shape-rendering="crispEdges"/><rect fill="#171111" x="12.2" y="269.9" width="61" height="24.65" shape-rendering="crispEdges"/><rect fill="#171111" x="73.2" y="269.9" width="1378.6" height="24.65" shape-rendering="crispEdges"/><rect fill="#171111" x="1451.8" y="269.9" width="12.2" height="24.65" shape-rendering="crispEdges"/><rect fill="#171111" x="0" y="294.3" width="12.2" height="24.65" shape-rendering="crispEdges"/><rect fill="#171111" x="12.2" y="294.3" width="1220" height="24.65" shape-rendering="crispEdges"/><rect fill="#171111" x="1232.2" y="294.3" width="219.6" height="24.65" shape-rendering="crispEdges"/><rect fill="#171111" x="1451.8" y="294.3" width="12.2" height="24.65" shape-rendering="crispEdges"/><rect fill="#171111" x="0" y="318.7" width="12.2" height="24.65" shape-rendering="crispEdges"/><rect fill="#171111" x="12.2" y="318.7" width="1159" height="24.65" shape-rendering="crispEdges"/><rect fill="#171111" x="1171.2" y="318.7" width="280.6" height="24.65" shape-rendering="crispEdges"/><rect fill="#171111" x="1451.8" y="318.7" width="12.2" height="24.65" shape-rendering="crispEdges"/><rect fill="#171111" x="0" y="343.1" width="12.2" height="24.65" shape-rendering="crispEdges"/><rect fill="#171111" x="12.2" y="343.1" width="1232.2" height="24.65" shape-rendering="crispEdges"/><rect fill="#171111" x="1244.4" y="343.1" width="207.4" height="24.65" shape-rendering="crispEdges"/><rect fill="#171111" x="1451.8" y="343.1" width="12.2" height="24.65" shape-rendering="crispEdges"/><rect fill="#171111" x="0" y="367.5" width="12.2" height="24.65" shape-rendering="crispEdges"/><rect fill="#171111" x="12.2" y="367.5" width="1268.8" height="24.65" shape-rendering="crispEdges"/><rect fill="#171111" x="1281" y="367.5" width="170.8" height="24.65" shape-rendering="crispEdges"/><rect fill="#171111" x="1451.8" y="367.5" width="12.2" height="24.65" shape-rendering="crispEdges"/><rect fill="#171111" x="0" y="391.9" width="12.2" height="24.65" shape-rendering="crispEdges"/><rect fill="#171111" x="12.2" y="391.9" width="1244.4" height="24.65" shape-rendering="crispEdges"/><rect fill="#171111" x="1256.6" y="391.9" width="195.2" height="24.65" shape-rendering="crispEdges"/><rect fill="#171111" x="1451.8" y="391.9" width="12.2" height="24.65" shape-rendering="crispEdges"/><rect fill="#171111" x="0" y="416.3" width="12.2" height="24.65" shape-rendering="crispEdges"/><rect fill="#171111" x="12.2" y="416.3" width="1207.8" height="24.65" shape-rendering="crispEdges"/><rect fill="#171111" x="1220" y="416.3" width="231.8" height="24.65" shape-rendering="crispEdges"/><rect fill="#171111" x="1451.8" y="416.3" width="12.2" height="24.65" shape-rendering="crispEdges"/><rect fill="#171111" x="0" y="440.7" width="12.2" height="24.65" shape-rendering="crispEdges"/><rect fill="#171111" x="12.2" y="440.7" width="1037" height="24.65" shape-rendering="crispEdges"/><rect fill="#171111" x="1049.2" y="440.7" width="402.6" height="24.65" shape-rendering="crispEdges"/><rect fill="#171111" x="1451.8" y="440.7" width="12.2" height="24.65" shape-rendering="crispEdges"/><rect fill="#171111" x="0" y="465.1" width="12.2" height="24.65" shape-rendering="crispEdges"/><rect fill="#171111" x="12.2" y="465.1" width="1232.2" height="24.65" shape-rendering="crispEdges"/><rect fill="#171111" x="1244.4" y="465.1" width="207.4" height="24.65" shape-rendering="crispEdges"/><rect fill="#171111" x="1451.8" y="465.1" width="12.2" height="24.65" shape-rendering="crispEdges"/><rect fill="#171111" x="0" y="489.5" width="12.2" height="24.65" shape-rendering="crispEdges"/><rect fill="#171111" x="12.2" y="489.5" width="1159" height="24.65" shape-rendering="crispEdges"/><rect fill="#171111" x="1171.2" y="489.5" width="280.6" height="24.65" shape-rendering="crispEdges"/><rect fill="#171111" x="1451.8" y="489.5" width="12.2" height="24.65" shape-rendering="crispEdges"/><rect fill="#171111" x="0" y="513.9" width="12.2" height="24.65" shape-rendering="crispEdges"/><rect fill="#171111" x="12.2" y="513.9" width="988.2" height="24.65" shape-rendering="crispEdges"/><rect fill="#171111" x="1000.4" y="513.9" width="451.4" height="24.65" shape-rendering="crispEdges"/><rect fill="#171111" x="1451.8" y="513.9" width="12.2" height="24.65" shape-rendering="crispEdges"/><rect fill="#171111" x="0" y="538.3" width="12.2" height="24.65" shape-rendering="crispEdges"/><rect fill="#e3d5d5" x="12.2" y="538.3" width="1146.8" height="24.65" shape-rendering="crispEdges"/><rect fill="#171111" x="1159" y="538.3" width="292.8" height="24.65" shape-rendering="crispEdges"/><rect fill="#171111" x="1451.8" y="538.3" width="12.2" height="24.65" shape-rendering="crispEdges"/><rect fill="#171111" x="0" y="562.7" width="12.2" height="24.65" shape-rendering="crispEdges"/><rect fill="#171111" x="12.2" y="562.7" width="622.2" height="24.65" shape-rendering="crispEdges"/><rect fill="#171111" x="634.4" y="562.7" width="817.4" height="24.65" shape-rendering="crispEdges"/><rect fill="#171111" x="1451.8" y="562.7" width="12.2" height="24.65" shape-rendering="crispEdges"/><rect fill="#171111" x="0" y="587.1" width="12.2" height="24.65" shape-rendering="crispEdges"/><rect fill="#171111" x="12.2" y="587.1" width="1024.8" height="24.65" shape-rendering="crispEdges"/><rect fill="#171111" x="1037" y="587.1" width="414.8" height="24.65" shape-rendering="crispEdges"/><rect fill="#171111" x="1451.8" y="587.1" width="12.2" height="24.65" shape-rendering="crispEdges"/><rect fill="#171111" x="0" y="611.5" width="12.2" height="24.65" shape-rendering="crispEdges"/><rect fill="#171111" x="12.2" y="611.5" width="1110.2" height="24.65" shape-rendering="crispEdges"/><rect fill="#171111" x="1122.4" y="611.5" width="329.4" height="24.65" shape-rendering="crispEdges"/><rect fill="#171111" x="1451.8" y="611.5" width="12.2" height="24.65" shape-rendering="crispEdges"/><rect fill="#171111" x="0" y="635.9" width="12.2" height="24.65" shape-rendering="crispEdges"/><rect fill="#171111" x="12.2" y="635.9" width="1049.2" height="24.65" shape-rendering="crispEdges"/><rect fill="#171111" x="1061.4" y="635.9" width="390.4" height="24.65" shape-rendering="crispEdges"/><rect fill="#171111" x="1451.8" y="635.9" width="12.2" height="24.65" shape-rendering="crispEdges"/><rect fill="#171111" x="0" y="660.3" width="12.2" height="24.65" shape-rendering="crispEdges"/><rect fill="#171111" x="12.2" y="660.3" width="1098" height="24.65" shape-rendering="crispEdges"/><rect fill="#171111" x="1110.2" y="660.3" width="341.6" height="24.65" shape-rendering="crispEdges"/><rect fill="#171111" x="1451.8" y="660.3" width="12.2" height="24.65" shape-rendering="crispEdges"/><rect fill="#171111" x="0" y="684.7" width="12.2" height="24.65" shape-rendering="crispEdges"/><rect fill="#171111" x="12.2" y="684.7" width="1317.6" height="24.65" shape-rendering="crispEdges"/><rect fill="#171111" x="1329.8" y="684.7" width="122" height="24.65" shape-rendering="crispEdges"/><rect fill="#171111" x="1451.8" y="684.7" width="12.2" height="24.65" shape-rendering="crispEdges"/><rect fill="#171111" x="0" y="709.1" width="12.2" height="24.65" shape-rendering="crispEdges"/><rect fill="#171111" x="12.2" y="709.1" width="549" height="24.65" shape-rendering="crispEdges"/><rect fill="#171111" x="561.2" y="709.1" width="890.6" height="24.65" shape-rendering="crispEdges"/><rect fill="#171111" x="1451.8" y="709.1" width="12.2" height="24.65" shape-rendering="crispEdges"/><rect fill="#171111" x="0" y="733.5" width="12.2" height="24.65" shape-rendering="crispEdges"/><rect fill="#171111" x="12.2" y="733.5" width="1366.4" height="24.65" shape-rendering="crispEdges"/><rect fill="#171111" x="1378.6" y="733.5" width="73.2" height="24.65" shape-rendering="crispEdges"/><rect fill="#171111" x="1451.8" y="733.5" width="12.2" height="24.65" shape-rendering="crispEdges"/><rect fill="#171111" x="0" y="757.9" width="12.2" height="24.65" shape-rendering="crispEdges"/><rect fill="#171111" x="12.2" y="757.9" width="1207.8" height="24.65" shape-rendering="crispEdges"/><rect fill="#171111" x="1220" y="757.9" width="231.8" height="24.65" shape-rendering="crispEdges"/><rect fill="#171111" x="1451.8" y="757.9" width="12.2" height="24.65" shape-rendering="crispEdges"/><rect fill="#171111" x="0" y="782.3" width="12.2" height="24.65" shape-rendering="crispEdges"/><rect fill="#171111" x="12.2" y="782.3" width="585.6" height="24.65" shape-rendering="crispEdges"/><rect fill="#171111" x="597.8" y="782.3" width="854" height="24.65" shape-rendering="crispEdges"/><rect fill="#171111" x="1451.8" y="782.3" width="12.2" height="24.65" shape-rendering="crispEdges"/><rect fill="#171111" x="0" y="806.7" width="12.2" height="24.65" shape-rendering="crispEdges"/><rect fill="#171111" x="12.2" y="806.7" width="1098" height="24.65" shape-rendering="crispEdges"/><rect fill="#171111" x="1110.2" y="806.7" width="341.6" height="24.65" shape-rendering="crispEdges"/><rect fill="#171111" x="1451.8" y="806.7" width="12.2" height="24.65" shape-rendering="crispEdges"/><rect fill="#171111" x="0" y="831.1" width="12.2" height="24.65" shape-rendering="crispEdges"/><rect fill="#171111" x="12.2" y="831.1" width="646.6" height="24.65" shape-rendering="crispEdges"/><rect fill="#171111" x="658.8" y="831.1" width="793" height="24.65" shape-rendering="crispEdges"/><rect fill="#171111" x="1451.8" y="831.1" width="12.2" height="24.65" shape-rendering="crispEdges"/><rect fill="#171111" x="0" y="855.5" width="12.2" height="24.65" shape-rendering="crispEdges"/><rect fill="#171111" x="12.2" y="855.5" width="378.2" height="24.65" shape-rendering="crispEdges"/><rect fill="#171111" x="390.4" y="855.5" width="12.2" height="24.65" shape-rendering="crispEdges"/><rect fill="#171111" x="402.6" y="855.5" width="1061.4" height="24.65" shape-rendering="crispEdges"/>
    <g class="terminal-272484351-matrix">
    <text class="terminal-272484351-r2" x="12.2" y="20" textLength="1122.4" clip-path="url(#terminal-272484351-line-0)">sort:&#160;recently&#160;added&#160;↓&#160;|&#160;5000&#160;loaded&#160;|&#160;5000&#160;matched&#160;|&#160;showing&#160;5000&#160;|&#160;display:&#160;title&#160;|&#160;?&#160;help</text><text class="terminal-272484351-r1" x="1464" y="20" textLength="12.2" clip-path="url(#terminal-272484351-line-0)">
</text><text class="terminal-272484351-r1" x="1464" y="44.4" textLength="12.2" clip-path="url(#terminal-272484351-line-1)">
</text><text class="terminal-272484351-r2" x="12.2" y="68.8" textLength="1159" clip-path="url(#terminal-272484351-line-2)">The&#160;Suitcase&#160;Full&#160;Of&#160;Bees&#160;-&#160;S01E07&#160;-&#160;The&#160;Last&#160;Known&#160;The&#160;Mayor&#x27;s&#160;Fake&#160;Mustache:&#160;Before&#160;The&#160;Siren</text><text class="terminal-272484351-r1" x="1464" y="68.8" textLength="12.2" clip-path="url(#terminal-272484351-line-2)">
</text><text class="terminal-272484351-r2" x="12.2" y="93.2" textLength="1244.4" clip-path="url(#terminal-272484351-line-3)">Too&#160;Many&#160;Wizards&#160;In&#160;The&#160;Coat&#160;Room&#160;-&#160;S05E16&#160;-&#160;The&#160;Emotionally&#160;Available&#160;The&#160;Mop&#160;Closet&#160;Treaty:&#160;Part&#160;One</text><text class="terminal-272484351-r1" x="1464" y="93.2" textLength="12.2" clip-path="url(#terminal-272484351-line-3)">
</text><text class="terminal-272484351-r2" x="12.2" y="117.6" textLength="549" clip-path="url(#terminal-272484351-line-4)">Haunted&#160;The&#160;Teapot&#160;That&#160;Knew:&#160;A&#160;Snack&#160;Too&#160;Far</text><text class="terminal-272484351-r1" x="1464" y="117.6" textLength="12.2" clip-path="url(#terminal-272484351-line-4)">
</text><text class="terminal-272484351-r2" x="12.2" y="142" textLength="597.8" clip-path="url(#terminal-272484351-line-5)">Soft&#160;The&#160;Tender&#160;Crowbar:&#160;A&#160;Fully&#160;Clothed&#160;Thriller</text><text class="terminal-272484351-r1" x="1464" y="142" textLength="12.2" clip-path="url(#terminal-272484351-line-5)">
</text><text class="terminal-272484351-r2" x="12.2" y="166.4" textLength="1012.6" clip-path="url(#terminal-272484351-line-6)">The&#160;Last&#160;Fax&#160;Before&#160;Breakfast&#160;-&#160;S01E14&#160;-&#160;The&#160;Day&#160;A&#160;Teapot&#160;Full&#160;Of&#160;Regrets:&#160;Part&#160;Two</text><text class="terminal-272484351-r1" x="1464" y="166.4" textLength="12.2" clip-path="url(#terminal-272484351-line-6)">
</text><text class="terminal-272484351-r2" x="12.2" y="190.8" textLength="1085.8" clip-path="url(#terminal-272484351-line-7)">The&#160;Very&#160;Loud&#160;Silent&#160;Film&#160;Club&#160;-&#160;S06E20&#160;-&#160;Never&#160;Trust&#160;A&#160;Romantic&#160;Extension&#160;Cord:&#160;Part&#160;One</text><text class="terminal-272484351-r1" x="1464" y="190.8" textLength="12.2" clip-path="url(#terminal-272484351-line-7)">
</text><text class="terminal-272484351-r2" x="12.2" y="215.2" textLength="1049.2" clip-path="url(#terminal-272484351-line-8)">Municipal&#160;Vampire&#160;Softball&#160;-&#160;S02E07&#160;-&#160;No&#160;One&#160;Asked&#160;For&#160;The&#160;Dampest&#160;Crown:&#160;Maybe&#160;A&#160;Date</text><text class="terminal-272484351-r1" x="1464" y="215.2" textLength="12.2" clip-path="url(#terminal-272484351-line-8)">
</text><text class="terminal-272484351-r2" x="12.2" y="239.6" textLength="1195.6" clip-path="url(#terminal-272484351-line-9)">The&#160;Last&#160;Fax&#160;Before&#160;Breakfast&#160;-&#160;S01E01&#160;-&#160;The&#160;Moonlit&#160;A&#160;Fax&#160;From&#160;The&#160;Future:&#160;With&#160;Mild&#160;Consequences</text><text class="terminal-272484351-r1" x="1464" y="239.6" textLength="12.2" clip-path="url(#terminal-272484351-line-9)">
</text><text class="terminal-272484351-r2" x="12.2" y="264" textLength="1415.2" clip-path="url(#terminal-272484351-line-10)">The&#160;Airship&#160;Of&#160;Questionable&#160;Choices&#160;-&#160;S01E18&#160;-&#160;The&#160;Emotionally&#160;Available&#160;A&#160;Teapot&#160;Full&#160;Of&#160;Regrets:&#160;Under&#160;Fluorescent</text><text class="terminal-272484351-r1" x="1464" y="264" textLength="12.2" clip-path="url(#terminal-272484351-line-10)">
</text><text class="terminal-272484351-r2" x="12.2" y="288.4" textLength="61" clip-path="url(#terminal-272484351-line-11)">Light</text><text class="terminal-272484351-r1" x="1464" y="288.4" textLength="12.2" clip-path="url(#terminal-272484351-line-11)">
</text><text class="terminal-272484351-r2" x="12.2" y="312.8" textLength="1220" clip-path="url(#terminal-272484351-line-12)">Suburban&#160;Weather&#160;Balloon&#160;War&#160;-&#160;S05E17&#160;-&#160;The&#160;Emergency&#160;The&#160;Dragon&#x27;s&#160;HR&#160;File:&#160;And&#160;Other&#160;Legal&#160;Problems</text><text class="terminal-272484351-r1" x="1464" y="312.8" textLength="12.2" clip-path="url(#terminal-272484351-line-12)">
</text><text class="terminal-272484351-r2" x="12.2" y="337.2" textLength="1159" clip-path="url(#terminal-272484351-line-13)">Please&#160;Hold&#160;For&#160;Wizard&#160;Support&#160;-&#160;S07E13&#160;-&#160;Please&#160;Do&#160;Not&#160;The&#160;Chair&#160;With&#160;A&#160;Past:&#160;Before&#160;The&#160;Siren</text><text class="terminal-272484351-r1" x="1464" y="337.2" textLength="12.2" clip-path="url(#terminal-272484351-line-13)">
</text><text class="terminal-272484351-r2" x="12.2" y="361.6" textLength="1232.2" clip-path="url(#terminal-272484351-line-14)">Soft&#160;Apocalypse&#160;Club&#160;-&#160;S06E04&#160;-&#160;Everyone&#160;Calmly&#160;Ignores&#160;A&#160;Very&#160;Nervous&#160;Laser:&#160;Almost&#160;Romantic&#160;Edition</text><text class="terminal-272484351-r1" x="1464" y="361.6" textLength="12.2" clip-path="url(#terminal-272484351-line-14)">
</text><text class="terminal-272484351-r2" x="12.2" y="386" textLength="1268.8" clip-path="url(#terminal-272484351-line-15)">Battle&#160;Of&#160;The&#160;Sentient&#160;Cardigans&#160;-&#160;S05E26&#160;-&#160;The&#160;Moonlit&#160;The&#160;Library&#x27;s&#160;Left&#160;Hook:&#160;Under&#160;Fluorescent&#160;Light</text><text class="terminal-272484351-r1" x="1464" y="386" textLength="12.2" clip-path="url(#terminal-272484351-line-15)">
</text><text class="terminal-272484351-r2" x="12.2" y="410.4" textLength="1244.4" clip-path="url(#terminal-272484351-line-16)">Twelve&#160;Angry&#160;Hamsters&#160;-&#160;S01E01&#160;-&#160;The&#160;Mildly&#160;Spicy&#160;The&#160;Spreadsheet&#160;That&#160;Winked:&#160;Under&#160;Fluorescent&#160;Light</text><text class="terminal-272484351-r1" x="1464" y="410.4" textLength="12.2" clip-path="url(#terminal-272484351-line-16)">
</text><text class="terminal-272484351-r2" x="12.2" y="434.8" textLength="1207.8" clip-path="url(#terminal-272484351-line-17)">Sincere&#160;Robots&#160;Bad&#160;At&#160;Lying&#160;-&#160;S05E16&#160;-&#160;The&#160;Dress&#160;Code&#160;For&#160;The&#160;Parking&#160;Meter&#160;Oracle:&#160;The&#160;Soft&#160;Reboot</text><text class="terminal-272484351-r1" x="1464" y="434.8" textLength="12.2" clip-path="url(#terminal-272484351-line-17)">
</text><text class="terminal-272484351-r2" x="12.2" y="459.2" textLength="1037" clip-path="url(#terminal-272484351-line-18)">Deep&#160;Space&#160;Sandwich&#160;Repair&#160;-&#160;S02E14&#160;-&#160;The&#160;Emergency&#160;A&#160;Fax&#160;From&#160;The&#160;Future:&#160;Not&#160;A&#160;Date</text><text class="terminal-272484351-r1" x="1464" y="459.2" textLength="12.2" clip-path="url(#terminal-272484351-line-18)">
</text><text class="terminal-272484351-r2" x="12.2" y="483.6" textLength="1232.2" clip-path="url(#terminal-272484351-line-19)">Planet&#160;Patio&#160;Furniture&#160;-&#160;S07E17&#160;-&#160;The&#160;Legal&#160;Status&#160;Of&#160;A&#160;Drawer&#160;Full&#160;Of&#160;Omens:&#160;Under&#160;Fluorescent&#160;Light</text><text class="terminal-272484351-r1" x="1464" y="483.6" textLength="12.2" clip-path="url(#terminal-272484351-line-19)">
</text><text class="terminal-272484351-r2" x="12.2" y="508" textLength="1159" clip-path="url(#terminal-272484351-line-20)">Arcade&#160;Saints&#160;Of&#160;Parking&#160;Level&#160;B&#160;-&#160;S04E22&#160;-&#160;How&#160;To&#160;Hide&#160;A&#160;Romantic&#160;Extension&#160;Cord:&#160;Maybe&#160;A&#160;Date</text><text class="terminal-272484351-r1" x="1464" y="508" textLength="12.2" clip-path="url(#terminal-272484351-line-20)">
</text><text class="terminal-272484351-r2" x="12.2" y="532.4" textLength="988.2" clip-path="url(#terminal-272484351-line-21)">Polite&#160;Crimes&#160;Of&#160;Snack&#160;County&#160;-&#160;S03E03&#160;-&#160;Return&#160;Of&#160;A&#160;Coupon&#160;Too&#160;Far:&#160;Maybe&#160;A&#160;Date</text><text class="terminal-272484351-r1" x="1464" y="532.4" textLength="12.2" clip-path="url(#terminal-272484351-line-21)">
</text><text class="terminal-272484351-r3" x="12.2" y="556.8" textLength="1146.8" clip-path="url(#terminal-272484351-line-22)">The&#160;Completely&#160;Different&#160;Otter&#160;Bureau&#160;-&#160;S05E05&#160;-&#160;The&#160;Last&#160;Known&#160;The&#160;Dampest&#160;Crown:&#160;After&#160;Lunch</text><text class="terminal-272484351-r1" x="1464" y="556.8" textLength="12.2" clip-path="url(#terminal-272484351-line-22)">
</text><text class="terminal-272484351-r2" x="12.2" y="581.2" textLength="622.2" clip-path="url(#terminal-272484351-line-23)">Neon&#160;The&#160;Warm&#160;Trophy&#160;Case:&#160;Quest&#160;For&#160;The&#160;Good&#160;Chair</text><text class="terminal-272484351-r1" x="1464" y="581.2" textLength="12.2" clip-path="url(#terminal-272484351-line-23)">
</text><text class="terminal-272484351-r2" x="12.2" y="605.6" textLength="1024.8" clip-path="url(#terminal-272484351-line-24)">The&#160;Suitcase&#160;Full&#160;Of&#160;Bees&#160;-&#160;S03E10&#160;-&#160;The&#160;Forbidden&#160;The&#160;Library&#x27;s&#160;Left&#160;Hook:&#160;Part&#160;Two</text><text class="terminal-272484351-r1" x="1464" y="605.6" textLength="12.2" clip-path="url(#terminal-272484351-line-24)">
</text><text class="terminal-272484351-r2" x="12.2" y="630" textLength="1110.2" clip-path="url(#terminal-272484351-line-25)">Tactical&#160;Bakery&#160;Unit&#160;-&#160;S06E06&#160;-&#160;A&#160;Night&#160;For&#160;A&#160;Wizard&#160;In&#160;Casual&#160;Friday&#160;Mode:&#160;The&#160;Soft&#160;Reboot</text><text class="terminal-272484351-r1" x="1464" y="630" textLength="12.2" clip-path="url(#terminal-272484351-line-25)">
</text><text class="terminal-272484351-r2" x="12.2" y="654.4" textLength="1049.2" clip-path="url(#terminal-272484351-line-26)">Planet&#160;Patio&#160;Furniture&#160;-&#160;S07E15&#160;-&#160;Everyone&#160;Calmly&#160;Ignores&#160;A&#160;Coupon&#160;Too&#160;Far:&#160;No&#160;Refunds</text><text class="terminal-272484351-r1" x="1464" y="654.4" textLength="12.2" clip-path="url(#terminal-272484351-line-26)">
</text><text class="terminal-272484351-r2" x="12.2" y="678.8" textLength="1098" clip-path="url(#terminal-272484351-line-27)">Velvet&#160;Thunder&#160;Convenience&#160;Store&#160;-&#160;S01E04&#160;-&#160;The&#160;Forbidden&#160;A&#160;Teapot&#160;Full&#160;Of&#160;Regrets:&#160;In&#160;4:3</text><text class="terminal-272484351-r1" x="1464" y="678.8" textLength="12.2" clip-path="url(#terminal-272484351-line-27)">
</text><text class="terminal-272484351-r2" x="12.2" y="703.2" textLength="1317.6" clip-path="url(#terminal-272484351-line-28)">The&#160;Completely&#160;Different&#160;Otter&#160;Bureau&#160;-&#160;S06E08&#160;-&#160;Never&#160;Trust&#160;The&#160;Goblin&#160;With&#160;Tax&#160;Questions:&#160;Before&#160;The&#160;Siren</text><text class="terminal-272484351-r1" x="1464" y="703.2" textLength="12.2" clip-path="url(#terminal-272484351-line-28)">
</text><text class="terminal-272484351-r2" x="12.2" y="727.6" textLength="549" clip-path="url(#terminal-272484351-line-29)">Sincere&#160;Ghost&#160;Pants&#160;Trial:&#160;Rise&#160;Of&#160;The&#160;Intern</text><text class="terminal-272484351-r1" x="1464" y="727.6" textLength="12.2" clip-path="url(#terminal-272484351-line-29)">
</text><text class="terminal-272484351-r2" x="12.2" y="752" textLength="1366.4" clip-path="url(#terminal-272484351-line-30)">Lunch&#160;Ladies&#160;Of&#160;The&#160;Seventh&#160;Dimension&#160;-&#160;S01E10&#160;-&#160;The&#160;Mildly&#160;Spicy&#160;The&#160;Chair&#160;With&#160;A&#160;Past:&#160;Almost&#160;Romantic&#160;Edition</text><text class="terminal-272484351-r1" x="1464" y="752" textLength="12.2" clip-path="url(#terminal-272484351-line-30)">
</text><text class="terminal-272484351-r2" x="12.2" y="776.4" textLength="1207.8" clip-path="url(#terminal-272484351-line-31)">Alien&#160;Intern&#160;Orientation&#160;-&#160;S08E01&#160;-&#160;Please&#160;Do&#160;Not&#160;A&#160;Raccoon&#160;At&#160;The&#160;Board&#160;Meeting:&#160;Broadcast&#160;Version</text><text class="terminal-272484351-r1" x="1464" y="776.4" textLength="12.2" clip-path="url(#terminal-272484351-line-31)">
</text><text class="terminal-272484351-r2" x="12.2" y="800.8" textLength="585.6" clip-path="url(#terminal-272484351-line-32)">Neon&#160;The&#160;Safe&#160;Word&#160;Committee:&#160;Rise&#160;Of&#160;The&#160;Intern</text><text class="terminal-272484351-r1" x="1464" y="800.8" textLength="12.2" clip-path="url(#terminal-272484351-line-32)">
</text><text class="terminal-272484351-r2" x="12.2" y="825.2" textLength="1098" clip-path="url(#terminal-272484351-line-33)">Sofa&#160;Kingdom&#160;After&#160;Dark&#160;-&#160;S02E06&#160;-&#160;A&#160;Night&#160;For&#160;The&#160;Confession&#160;Tuba:&#160;The&#160;Soup&#160;Council&#160;Remix</text><text class="terminal-272484351-r1" x="1464" y="825.2" textLength="12.2" clip-path="url(#terminal-272484351-line-33)">
</text><text class="terminal-272484351-r2" x="12.2" y="849.6" textLength="646.6" clip-path="url(#terminal-272484351-line-34)">Sideways&#160;The&#160;Parking&#160;Garage&#160;Waltz:&#160;Rise&#160;Of&#160;The&#160;Intern</text><text class="terminal-272484351-r1" x="1464" y="849.6" textLength="12.2" clip-path="url(#terminal-272484351-line-34)">
</text><text class="terminal-272484351-r4" x="12.2" y="874" textLength="378.2" clip-path="url(#terminal-272484351-line-35)">style:&#160;15-jbrowse-rosewood.tcss</text>
    </g>
    </g>
</svg>
