<svg class="rich-terminal" viewBox="0 0 1482 928.4" xmlns="http://www.w3.org/2000/svg">
    <!-- Generated with Rich https://www.textualize.io -->
    <style>

    @font-face {
        font-family: "Fira Code";
        src: local("FiraCode-Regular"),
                url("https://cdnjs.cloudflare.com/ajax/libs/firacode/6.2.0/woff2/FiraCode-Regular.woff2") format("woff2"),
                url("https://cdnjs.cloudflare.com/ajax/libs/firacode/6.2.0/woff/FiraCode-Regular.woff") format("woff");
        font-style: normal;
        font-weight: 400;
    }
    @font-face {
        font-family: "Fira Code";
        src: local("FiraCode-Bold"),
                url("https://cdnjs.cloudflare.com/ajax/libs/firacode/6.2.0/woff2/FiraCode-Bold.woff2") format("woff2"),
                url("https://cdnjs.cloudflare.com/ajax/libs/firacode/6.2.0/woff/FiraCode-Bold.woff") format("woff");
        font-style: bold;
        font-weight: 700;
    }

    .terminal-1537205331-matrix {
        font-family: Fira Code, monospace;
        font-size: 20px;
        line-height: 24.4px;
        font-variant-east-asian: full-width;
    }

    .terminal-1537205331-title {
        font-size: 18px;
        font-weight: bold;
        font-family: arial;
    }

    .terminal-1537205331-r1 { fill: #c5c8c6 }
.terminal-1537205331-r2 { fill: #d7dee7 }
.terminal-1537205331-r3 { fill: #303841 }
.terminal-1537205331-r4 { fill: #7d8ca0 }
    </style>

    <defs>
    <clipPath id="terminal-1537205331-clip-terminal">
      <rect x="0" y="0" width="1463.0" height="877.4" />
    </clipPath>
    <clipPath id="terminal-1537205331-line-0">
    <rect x="0" y="1.5" width="1464" height="24.65"/>
            </clipPath>
<clipPath id="terminal-1537205331-line-1">
    <rect x="0" y="25.9" width="1464" height="24.65"/>
            </clipPath>
<clipPath id="terminal-1537205331-line-2">
    <rect x="0" y="50.3" width="1464" height="24.65"/>
            </clipPath>
<clipPath id="terminal-1537205331-line-3">
    <rect x="0" y="74.7" width="1464" height="24.65"/>
            </clipPath>
<clipPath id="terminal-1537205331-line-4">
    <rect x="0" y="99.1" width="1464" height="24.65"/>
            </clipPath>
<clipPath id="terminal-1537205331-line-5">
    <rect x="0" y="123.5" width="1464" height="24.65"/>
            </clipPath>
<clipPath id="terminal-1537205331-line-6">
    <rect x="0" y="147.9" width="1464" height="24.65"/>
            </clipPath>
<clipPath id="terminal-1537205331-line-7">
    <rect x="0" y="172.3" width="1464" height="24.65"/>
            </clipPath>
<clipPath id="terminal-1537205331-line-8">
    <rect x="0" y="196.7" width="1464" height="24.65"/>
            </clipPath>
<clipPath id="terminal-1537205331-line-9">
    <rect x="0" y="221.1" width="1464" height="24.65"/>
            </clipPath>
<clipPath id="terminal-1537205331-line-10">
    <rect x="0" y="245.5" width="1464" height="24.65"/>
            </clipPath>
<clipPath id="terminal-1537205331-line-11">
    <rect x="0" y="269.9" width="1464" height="24.65"/>
            </clipPath>
<clipPath id="terminal-1537205331-line-12">
    <rect x="0" y="294.3" width="1464" height="24.65"/>
            </clipPath>
<clipPath id="terminal-1537205331-line-13">
    <rect x="0" y="318.7" width="1464" height="24.65"/>
            </clipPath>
<clipPath id="terminal-1537205331-line-14">
    <rect x="0" y="343.1" width="1464" height="24.65"/>
            </clipPath>
<clipPath id="terminal-1537205331-line-15">
    <rect x="0" y="367.5" width="1464" height="24.65"/>
            </clipPath>
<clipPath id="terminal-1537205331-line-16">
    <rect x="0" y="391.9" width="1464" height="24.65"/>
            </clipPath>
<clipPath id="terminal-1537205331-line-17">
    <rect x="0" y="416.3" width="1464" height="24.65"/>
            </clipPath>
<clipPath id="terminal-1537205331-line-18">
    <rect x="0" y="440.7" width="1464" height="24.65"/>
            </clipPath>
<clipPath id="terminal-1537205331-line-19">
    <rect x="0" y="465.1" width="1464" height="24.65"/>
            </clipPath>
<clipPath id="terminal-1537205331-line-20">
    <rect x="0" y="489.5" width="1464" height="24.65"/>
            </clipPath>
<clipPath id="terminal-1537205331-line-21">
    <rect x="0" y="513.9" width="1464" height="24.65"/>
            </clipPath>
<clipPath id="terminal-1537205331-line-22">
    <rect x="0" y="538.3" width="1464" height="24.65"/>
            </clipPath>
<clipPath id="terminal-1537205331-line-23">
    <rect x="0" y="562.7" width="1464" height="24.65"/>
            </clipPath>
<clipPath id="terminal-1537205331-line-24">
    <rect x="0" y="587.1" width="1464" height="24.65"/>
            </clipPath>
<clipPath id="terminal-1537205331-line-25">
    <rect x="0" y="611.5" width="1464" height="24.65"/>
            </clipPath>
<clipPath id="terminal-1537205331-line-26">
    <rect x="0" y="635.9" width="1464" height="24.65"/>
            </clipPath>
<clipPath id="terminal-1537205331-line-27">
    <rect x="0" y="660.3" width="1464" height="24.65"/>
            </clipPath>
<clipPath id="terminal-1537205331-line-28">
    <rect x="0" y="684.7" width="1464" height="24.65"/>
            </clipPath>
<clipPath id="terminal-1537205331-line-29">
    <rect x="0" y="709.1" width="1464" height="24.65"/>
            </clipPath>
<clipPath id="terminal-1537205331-line-30">
    <rect x="0" y="733.5" width="1464" height="24.65"/>
            </clipPath>
<clipPath id="terminal-1537205331-line-31">
    <rect x="0" y="757.9" width="1464" height="24.65"/>
            </clipPath>
<clipPath id="terminal-1537205331-line-32">
    <rect x="0" y="782.3" width="1464" height="24.65"/>
            </clipPath>
<clipPath id="terminal-1537205331-line-33">
    <rect x="0" y="806.7" width="1464" height="24.65"/>
            </clipPath>
<clipPath id="terminal-1537205331-line-34">
    <rect x="0" y="831.1" width="1464" height="24.65"/>
            </clipPath>
    </defs>

    <rect fill="#292929" stroke="rgba(255,255,255,0.35)" stroke-width="1" x="1" y="1" width="1480" height="926.4" rx="8"/><text class="terminal-1537205331-title" fill="#c5c8c6" text-anchor="middle" x="740" y="27">23-jbrowse-spacegrey.svg&#160;-&#160;23-jbrowse-spacegrey.tcss</text>
            <g transform="translate(26,22)">
            <circle cx="0" cy="0" r="7" fill="#ff5f57"/>
            <circle cx="22" cy="0" r="7" fill="#febc2e"/>
            <circle cx="44" cy="0" r="7" fill="#28c840"/>
            </g>
        
    <g transform="translate(9, 41)" clip-path="url(#terminal-1537205331-clip-terminal)">
    <rect fill="#1c1f26" x="0" y="1.5" width="12.2" height="24.65" shape-rendering="crispEdges"/><rect fill="#1c1f26" x="12.2" y="1.5" width="1134.6" height="24.65" shape-rendering="crispEdges"/><rect fill="#1c1f26" x="1146.8" y="1.5" width="12.2" height="24.65" shape-rendering="crispEdges"/><rect fill="#303841" x="1159" y="1.5" width="305" height="24.65" shape-rendering="crispEdges"/><rect fill="#232830" x="0" y="25.9" width="12.2" height="24.65" shape-rendering="crispEdges"/><rect fill="#232830" x="12.2" y="25.9" width="1439.6" height="24.65" shape-rendering="crispEdges"/><rect fill="#232830" x="1451.8" y="25.9" width="12.2" height="24.65" shape-rendering="crispEdges"/><rect fill="#303841" x="0" y="50.3" width="12.2" height="24.65" shape-rendering="crispEdges"/><rect fill="#303841" x="12.2" y="50.3" width="634.4" height="24.65" shape-rendering="crispEdges"/><rect fill="#303841" x="646.6" y="50.3" width="805.2" height="24.65" shape-rendering="crispEdges"/><rect fill="#303841" x="1451.8" y="50.3" width="12.2" height="24.65" shape-rendering="crispEdges"/><rect fill="#303841" x="0" y="74.7" width="12.2" height="24.65" shape-rendering="crispEdges"/><rect fill="#303841" x="12.2" y="74.7" width="451.4" height="24.65" shape-rendering="crispEdges"/><rect fill="#303841" x="463.6" y="74.7" width="988.2" height="24.65" shape-rendering="crispEdges"/><rect fill="#303841" x="1451.8" y="74.7" width="12.2" height="24.65" shape-rendering="crispEdges"/><rect fill="#303841" x="0" y="99.1" width="12.2" height="24.65" shape-rendering="crispEdges"/><rect fill="#303841" x="12.2" y="99.1" width="427" height="24.65" shape-rendering="crispEdges"/><rect fill="#303841" x="439.2" y="99.1" width="1012.6" height="24.65" shape-rendering="crispEdges"/><rect fill="#303841" x="1451.8" y="99.1" width="12.2" height="24.65" shape-rendering="crispEdges"/><rect fill="#303841" x="0" y="123.5" width="12.2" height="24.65" shape-rendering="crispEdges"/><rect fill="#303841" x="12.2" y="123.5" width="414.8" height="24.65" shape-rendering="crispEdges"/><rect fill="#303841" x="427" y="123.5" width="1024.8" height="24.65" shape-rendering="crispEdges"/><rect fill="#303841" x="1451.8" y="123.5" width="12.2" height="24.65" shape-rendering="crispEdges"/><rect fill="#303841" x="0" y="147.9" width="12.2" height="24.65" shape-rendering="crispEdges"/><rect fill="#303841" x="12.2" y="147.9" width="524.6" height="24.65" shape-rendering="crispEdges"/><rect fill="#303841" x="536.8" y="147.9" width="915" height="24.65" shape-rendering="crispEdges"/><rect fill="#303841" x="1451.8" y="147.9" width="12.2" height="24.65" shape-rendering="crispEdges"/><rect fill="#303841" x="0" y="172.3" width="12.2" height="24.65" shape-rendering="crispEdges"/><rect fill="#303841" x="12.2" y="172.3" width="414.8" height="24.65" shape-rendering="crispEdges"/><rect fill="#303841" x="427" y="172.3" width="1024.8" height="24.65" shape-rendering="crispEdges"/><rect fill="#303841" x="1451.8" y="172.3" width="12.2" height="24.65" shape-rendering="crispEdges"/><rect fill="#303841" x="0" y="196.7" width="12.2" height="24.65" shape-rendering="crispEdges"/><rect fill="#303841" x="12.2" y="196.7" width="427" height="24.65" shape-rendering="crispEdges"/><rect fill="#303841" x="439.2" y="196.7" width="1012.6" height="24.65" shape-rendering="crispEdges"/><rect fill="#303841" x="1451.8" y="196.7" width="12.2" height="24.65" shape-rendering="crispEdges"/><rect fill="#303841" x="0" y="221.1" width="12.2" height="24.65" shape-rendering="crispEdges"/><rect fill="#303841" x="12.2" y="221.1" width="451.4" height="24.65" shape-rendering="crispEdges"/><rect fill="#303841" x="463.6" y="221.1" width="988.2" height="24.65" shape-rendering="crispEdges"/><rect fill="#303841" x="1451.8" y="221.1" width="12.2" height="24.65" shape-rendering="crispEdges"/><rect fill="#303841" x="0" y="245.5" width="12.2" height="24.65" shape-rendering="crispEdges"/><rect fill="#303841" x="12.2" y="245.5" width="427" height="24.65" shape-rendering="crispEdges"/><rect fill="#303841" x="439.2" y="245.5" width="1012.6" height="24.65" shape-rendering="crispEdges"/><rect fill="#303841" x="1451.8" y="245.5" width="12.2" height="24.65" shape-rendering="crispEdges"/><rect fill="#303841" x="0" y="269.9" width="12.2" height="24.65" shape-rendering="crispEdges"/><rect fill="#303841" x="12.2" y="269.9" width="439.2" height="24.65" shape-rendering="crispEdges"/><rect fill="#303841" x="451.4" y="269.9" width="1000.4" height="24.65" shape-rendering="crispEdges"/><rect fill="#303841" x="1451.8" y="269.9" width="12.2" height="24.65" shape-rendering="crispEdges"/><rect fill="#303841" x="0" y="294.3" width="12.2" height="24.65" shape-rendering="crispEdges"/><rect fill="#d7dee7" x="12.2" y="294.3" width="829.6" height="24.65" shape-rendering="crispEdges"/><rect fill="#303841" x="841.8" y="294.3" width="610" height="24.65" shape-rendering="crispEdges"/><rect fill="#303841" x="1451.8" y="294.3" width="12.2" height="24.65" shape-rendering="crispEdges"/><rect fill="#303841" x="0" y="318.7" width="12.2" height="24.65" shape-rendering="crispEdges"/><rect fill="#303841" x="12.2" y="318.7" width="695.4" height="24.65" shape-rendering="crispEdges"/><rect fill="#303841" x="707.6" y="318.7" width="744.2" height="24.65" shape-rendering="crispEdges"/><rect fill="#303841" x="1451.8" y="318.7" width="12.2" height="24.65" shape-rendering="crispEdges"/><rect fill="#303841" x="0" y="343.1" width="12.2" height="24.65" shape-rendering="crispEdges"/><rect fill="#303841" x="12.2" y="343.1" width="683.2" height="24.65" shape-rendering="crispEdges"/><rect fill="#303841" x="695.4" y="343.1" width="756.4" height="24.65" shape-rendering="crispEdges"/><rect fill="#303841" x="1451.8" y="343.1" width="12.2" height="24.65" shape-rendering="crispEdges"/><rect fill="#303841" x="0" y="367.5" width="12.2" height="24.65" shape-rendering="crispEdges"/><rect fill="#303841" x="12.2" y="367.5" width="829.6" height="24.65" shape-rendering="crispEdges"/><rect fill="#303841" x="841.8" y="367.5" width="610" height="24.65" shape-rendering="crispEdges"/><rect fill="#303841" x="1451.8" y="367.5" width="12.2" height="24.65" shape-rendering="crispEdges"/><rect fill="#303841" x="0" y="391.9" width="12.2" height="24.65" shape-rendering="crispEdges"/><rect fill="#303841" x="12.2" y="391.9" width="707.6" height="24.65" shape-rendering="crispEdges"/><rect fill="#303841" x="719.8" y="391.9" width="732" height="24.65" shape-rendering="crispEdges"/><rect fill="#303841" x="1451.8" y="391.9" width="12.2" height="24.65" shape-rendering="crispEdges"/><rect fill="#303841" x="0" y="416.3" width="12.2" height="24.65" shape-rendering="crispEdges"/><rect fill="#303841" x="12.2" y="416.3" width="634.4" height="24.65" shape-rendering="crispEdges"/><rect fill="#303841" x="646.6" y="416.3" width="805.2" height="24.65" shape-rendering="crispEdges"/><rect fill="#303841" x="1451.8" y="416.3" width="12.2" height="24.65" shape-rendering="crispEdges"/><rect fill="#303841" x="0" y="440.7" width="12.2" height="24.65" shape-rendering="crispEdges"/><rect fill="#303841" x="12.2" y="440.7" width="658.8" height="24.65" shape-rendering="crispEdges"/><rect fill="#303841" x="671" y="440.7" width="780.8" height="24.65" shape-rendering="crispEdges"/><rect fill="#303841" x="1451.8" y="440.7" width="12.2" height="24.65" shape-rendering="crispEdges"/><rect fill="#303841" x="0" y="465.1" width="12.2" height="24.65" shape-rendering="crispEdges"/><rect fill="#303841" x="12.2" y="465.1" width="671" height="24.65" shape-rendering="crispEdges"/><rect fill="#303841" x="683.2" y="465.1" width="768.6" height="24.65" shape-rendering="crispEdges"/><rect fill="#303841" x="1451.8" y="465.1" width="12.2" height="24.65" shape-rendering="crispEdges"/><rect fill="#303841" x="0" y="489.5" width="12.2" height="24.65" shape-rendering="crispEdges"/><rect fill="#303841" x="12.2" y="489.5" width="732" height="24.65" shape-rendering="crispEdges"/><rect fill="#303841" x="744.2" y="489.5" width="707.6" height="24.65" shape-rendering="crispEdges"/><rect fill="#303841" x="1451.8" y="489.5" width="12.2" height="24.65" shape-rendering="crispEdges"/><rect fill="#303841" x="0" y="513.9" width="12.2" height="24.65" shape-rendering="crispEdges"/><rect fill="#303841" x="12.2" y="513.9" width="805.2" height="24.65" shape-rendering="crispEdges"/><rect fill="#303841" x="817.4" y="513.9" width="634.4" height="24.65" shape-rendering="crispEdges"/><rect fill="#303841" x="1451.8" y="513.9" width="12.2" height="24.65" shape-rendering="crispEdges"/><rect fill="#303841" x="0" y="538.3" width="12.2" height="24.65" shape-rendering="crispEdges"/><rect fill="#303841" x="12.2" y="538.3" width="732" height="24.65" shape-rendering="crispEdges"/><rect fill="#303841" x="744.2" y="538.3" width="707.6" height="24.65" shape-rendering="crispEdges"/><rect fill="#303841" x="1451.8" y="538.3" width="12.2" height="24.65" shape-rendering="crispEdges"/><rect fill="#303841" x="0" y="562.7" width="12.2" height="24.65" shape-rendering="crispEdges"/><rect fill="#303841" x="12.2" y="562.7" width="549" height="24.65" shape-rendering="crispEdges"/><rect fill="#303841" x="561.2" y="562.7" width="890.6" height="24.65" shape-rendering="crispEdges"/><rect fill="#303841" x="1451.8" y="562.7" width="12.2" height="24.65" shape-rendering="crispEdges"/><rect fill="#303841" x="0" y="587.1" width="12.2" height="24.65" shape-rendering="crispEdges"/><rect fill="#303841" x="12.2" y="587.1" width="805.2" height="24.65" shape-rendering="crispEdges"/><rect fill="#303841" x="817.4" y="587.1" width="634.4" height="24.65" shape-rendering="crispEdges"/><rect fill="#303841" x="1451.8" y="587.1" width="12.2" height="24.65" shape-rendering="crispEdges"/><rect fill="#303841" x="0" y="611.5" width="12.2" height="24.65" shape-rendering="crispEdges"/><rect fill="#303841" x="12.2" y="611.5" width="841.8" height="24.65" shape-rendering="crispEdges"/><rect fill="#303841" x="854" y="611.5" width="597.8" height="24.65" shape-rendering="crispEdges"/><rect fill="#303841" x="1451.8" y="611.5" width="12.2" height="24.65" shape-rendering="crispEdges"/><rect fill="#303841" x="0" y="635.9" width="12.2" height="24.65" shape-rendering="crispEdges"/><rect fill="#303841" x="12.2" y="635.9" width="671" height="24.65" shape-rendering="crispEdges"/><rect fill="#303841" x="683.2" y="635.9" width="768.6" height="24.65" shape-rendering="crispEdges"/><rect fill="#303841" x="1451.8" y="635.9" width="12.2" height="24.65" shape-rendering="crispEdges"/><rect fill="#303841" x="0" y="660.3" width="12.2" height="24.65" shape-rendering="crispEdges"/><rect fill="#303841" x="12.2" y="660.3" width="707.6" height="24.65" shape-rendering="crispEdges"/><rect fill="#303841" x="719.8" y="660.3" width="732" height="24.65" shape-rendering="crispEdges"/><rect fill="#303841" x="1451.8" y="660.3" width="12.2" height="24.65" shape-rendering="crispEdges"/><rect fill="#303841" x="0" y="684.7" width="12.2" height="24.65" shape-rendering="crispEdges"/><rect fill="#303841" x="12.2" y="684.7" width="671" height="24.65" shape-rendering="crispEdges"/><rect fill="#303841" x="683.2" y="684.7" width="768.6" height="24.65" shape-rendering="crispEdges"/><rect fill="#303841" x="1451.8" y="684.7" width="12.2" height="24.65" shape-rendering="crispEdges"/><rect fill="#303841" x="0" y="709.1" width="12.2" height="24.65" shape-rendering="crispEdges"/><rect fill="#303841" x="12.2" y="709.1" width="427" height="24.65" shape-rendering="crispEdges"/><rect fill="#303841" x="439.2" y="709.1" width="1012.6" height="24.65" shape-rendering="crispEdges"/><rect fill="#303841" x="1451.8" y="709.1" width="12.2" height="24.65" shape-rendering="crispEdges"/><rect fill="#303841" x="0" y="733.5" width="12.2" height="24.65" shape-rendering="crispEdges"/><rect fill="#303841" x="12.2" y="733.5" width="841.8" height="24.65" shape-rendering="crispEdges"/><rect fill="#303841" x="854" y="733.5" width="597.8" height="24.65" shape-rendering="crispEdges"/><rect fill="#303841" x="1451.8" y="733.5" width="12.2" height="24.65" shape-rendering="crispEdges"/><rect fill="#303841" x="0" y="757.9" width="12.2" height="24.65" shape-rendering="crispEdges"/><rect fill="#303841" x="12.2" y="757.9" width="902.8" height="24.65" shape-rendering="crispEdges"/><rect fill="#303841" x="915" y="757.9" width="536.8" height="24.65" shape-rendering="crispEdges"/><rect fill="#303841" x="1451.8" y="757.9" width="12.2" height="24.65" shape-rendering="crispEdges"/><rect fill="#303841" x="0" y="782.3" width="12.2" height="24.65" shape-rendering="crispEdges"/><rect fill="#303841" x="12.2" y="782.3" width="719.8" height="24.65" shape-rendering="crispEdges"/><rect fill="#303841" x="732" y="782.3" width="719.8" height="24.65" shape-rendering="crispEdges"/><rect fill="#303841" x="1451.8" y="782.3" width="12.2" height="24.65" shape-rendering="crispEdges"/><rect fill="#303841" x="0" y="806.7" width="12.2" height="24.65" shape-rendering="crispEdges"/><rect fill="#303841" x="12.2" y="806.7" width="756.4" height="24.65" shape-rendering="crispEdges"/><rect fill="#303841" x="768.6" y="806.7" width="683.2" height="24.65" shape-rendering="crispEdges"/><rect fill="#303841" x="1451.8" y="806.7" width="12.2" height="24.65" shape-rendering="crispEdges"/><rect fill="#303841" x="0" y="831.1" width="12.2" height="24.65" shape-rendering="crispEdges"/><rect fill="#303841" x="12.2" y="831.1" width="561.2" height="24.65" shape-rendering="crispEdges"/><rect fill="#303841" x="573.4" y="831.1" width="878.4" height="24.65" shape-rendering="crispEdges"/><rect fill="#303841" x="1451.8" y="831.1" width="12.2" height="24.65" shape-rendering="crispEdges"/><rect fill="#1c1f26" x="0" y="855.5" width="12.2" height="24.65" shape-rendering="crispEdges"/><rect fill="#1c1f26" x="12.2" y="855.5" width="390.4" height="24.65" shape-rendering="crispEdges"/><rect fill="#1c1f26" x="402.6" y="855.5" width="12.2" height="24.65" shape-rendering="crispEdges"/><rect fill="#303841" x="414.8" y="855.5" width="1049.2" height="24.65" shape-rendering="crispEdges"/>
    <g class="terminal-1537205331-matrix">
    <text class="terminal-1537205331-r2" x="12.2" y="20" textLength="1134.6" clip-path="url(#terminal-1537205331-line-0)">sort:&#160;last&#160;played&#160;&#160;&#160;&#160;↓&#160;|&#160;4604&#160;loaded&#160;|&#160;4604&#160;matched&#160;|&#160;showing&#160;4604&#160;|&#160;display:&#160;title&#160;|&#160;F1&#160;help</text><text class="terminal-1537205331-r1" x="1464" y="20" textLength="12.2" clip-path="url(#terminal-1537205331-line-0)">
</text><text class="terminal-1537205331-r1" x="1464" y="44.4" textLength="12.2" clip-path="url(#terminal-1537205331-line-1)">
</text><text class="terminal-1537205331-r2" x="12.2" y="68.8" textLength="634.4" clip-path="url(#terminal-1537205331-line-2)">The&#160;Land&#160;Before&#160;Time&#160;-&#160;S19E88&#160;-&#160;The.Land.Before.Time</text><text class="terminal-1537205331-r1" x="1464" y="68.8" textLength="12.2" clip-path="url(#terminal-1537205331-line-2)">
</text><text class="terminal-1537205331-r2" x="12.2" y="93.2" textLength="451.4" clip-path="url(#terminal-1537205331-line-3)">Clarkson&#x27;s&#160;Farm&#160;-&#160;S01E08&#160;-&#160;Harvesting</text><text class="terminal-1537205331-r1" x="1464" y="93.2" textLength="12.2" clip-path="url(#terminal-1537205331-line-3)">
</text><text class="terminal-1537205331-r2" x="12.2" y="117.6" textLength="427" clip-path="url(#terminal-1537205331-line-4)">Clarkson&#x27;s&#160;Farm&#160;-&#160;S01E07&#160;-&#160;Fluffing</text><text class="terminal-1537205331-r1" x="1464" y="117.6" textLength="12.2" clip-path="url(#terminal-1537205331-line-4)">
</text><text class="terminal-1537205331-r2" x="12.2" y="142" textLength="414.8" clip-path="url(#terminal-1537205331-line-5)">Clarkson&#x27;s&#160;Farm&#160;-&#160;S01E06&#160;-&#160;Melting</text><text class="terminal-1537205331-r1" x="1464" y="142" textLength="12.2" clip-path="url(#terminal-1537205331-line-5)">
</text><text class="terminal-1537205331-r2" x="12.2" y="166.4" textLength="524.6" clip-path="url(#terminal-1537205331-line-6)">Clarkson&#x27;s&#160;Farm&#160;-&#160;S01E05&#160;-&#160;Pan&#160;(dem)&#160;icking</text><text class="terminal-1537205331-r1" x="1464" y="166.4" textLength="12.2" clip-path="url(#terminal-1537205331-line-6)">
</text><text class="terminal-1537205331-r2" x="12.2" y="190.8" textLength="414.8" clip-path="url(#terminal-1537205331-line-7)">Clarkson&#x27;s&#160;Farm&#160;-&#160;S01E04&#160;-&#160;Wilding</text><text class="terminal-1537205331-r1" x="1464" y="190.8" textLength="12.2" clip-path="url(#terminal-1537205331-line-7)">
</text><text class="terminal-1537205331-r2" x="12.2" y="215.2" textLength="427" clip-path="url(#terminal-1537205331-line-8)">Clarkson&#x27;s&#160;Farm&#160;-&#160;S01E03&#160;-&#160;Shopping</text><text class="terminal-1537205331-r1" x="1464" y="215.2" textLength="12.2" clip-path="url(#terminal-1537205331-line-8)">
</text><text class="terminal-1537205331-r2" x="12.2" y="239.6" textLength="451.4" clip-path="url(#terminal-1537205331-line-9)">Clarkson&#x27;s&#160;Farm&#160;-&#160;S01E01&#160;-&#160;Tractoring</text><text class="terminal-1537205331-r1" x="1464" y="239.6" textLength="12.2" clip-path="url(#terminal-1537205331-line-9)">
</text><text class="terminal-1537205331-r2" x="12.2" y="264" textLength="427" clip-path="url(#terminal-1537205331-line-10)">Clarkson&#x27;s&#160;Farm&#160;-&#160;S01E02&#160;-&#160;Sheeping</text><text class="terminal-1537205331-r1" x="1464" y="264" textLength="12.2" clip-path="url(#terminal-1537205331-line-10)">
</text><text class="terminal-1537205331-r2" x="12.2" y="288.4" textLength="439.2" clip-path="url(#terminal-1537205331-line-11)">Star&#160;City&#160;-&#160;S01E05&#160;-&#160;Bite&#160;Your&#160;Elbow</text><text class="terminal-1537205331-r1" x="1464" y="288.4" textLength="12.2" clip-path="url(#terminal-1537205331-line-11)">
</text><text class="terminal-1537205331-r3" x="12.2" y="312.8" textLength="829.6" clip-path="url(#terminal-1537205331-line-12)">Now&#160;and&#160;Then,&#160;Here&#160;and&#160;There&#160;-&#160;S01E13&#160;-&#160;Now&#160;and&#160;Then,&#160;Here&#160;and&#160;There</text><text class="terminal-1537205331-r1" x="1464" y="312.8" textLength="12.2" clip-path="url(#terminal-1537205331-line-12)">
</text><text class="terminal-1537205331-r2" x="12.2" y="337.2" textLength="695.4" clip-path="url(#terminal-1537205331-line-13)">Now&#160;and&#160;Then,&#160;Here&#160;and&#160;There&#160;-&#160;S01E12&#160;-&#160;This&#160;Bloody&#160;Earth</text><text class="terminal-1537205331-r1" x="1464" y="337.2" textLength="12.2" clip-path="url(#terminal-1537205331-line-13)">
</text><text class="terminal-1537205331-r2" x="12.2" y="361.6" textLength="683.2" clip-path="url(#terminal-1537205331-line-14)">Now&#160;and&#160;Then,&#160;Here&#160;and&#160;There&#160;-&#160;S01E10&#160;-&#160;Prelude&#160;to&#160;Chaos</text><text class="terminal-1537205331-r1" x="1464" y="361.6" textLength="12.2" clip-path="url(#terminal-1537205331-line-14)">
</text><text class="terminal-1537205331-r2" x="12.2" y="386" textLength="829.6" clip-path="url(#terminal-1537205331-line-15)">Now&#160;and&#160;Then,&#160;Here&#160;and&#160;There&#160;-&#160;S01E06&#160;-&#160;Disappearance&#160;in&#160;a&#160;Sandstorm</text><text class="terminal-1537205331-r1" x="1464" y="386" textLength="12.2" clip-path="url(#terminal-1537205331-line-15)">
</text><text class="terminal-1537205331-r2" x="12.2" y="410.4" textLength="707.6" clip-path="url(#terminal-1537205331-line-16)">Now&#160;and&#160;Then,&#160;Here&#160;and&#160;There&#160;-&#160;S01E11&#160;-&#160;Eve&#160;of&#160;Destruction</text><text class="terminal-1537205331-r1" x="1464" y="410.4" textLength="12.2" clip-path="url(#terminal-1537205331-line-16)">
</text><text class="terminal-1537205331-r2" x="12.2" y="434.8" textLength="634.4" clip-path="url(#terminal-1537205331-line-17)">Now&#160;and&#160;Then,&#160;Here&#160;and&#160;There&#160;-&#160;S01E09&#160;-&#160;In&#160;the&#160;Chasm</text><text class="terminal-1537205331-r1" x="1464" y="434.8" textLength="12.2" clip-path="url(#terminal-1537205331-line-17)">
</text><text class="terminal-1537205331-r2" x="12.2" y="459.2" textLength="658.8" clip-path="url(#terminal-1537205331-line-18)">Now&#160;and&#160;Then,&#160;Here&#160;and&#160;There&#160;-&#160;S01E08&#160;-&#160;Two&#160;Lone&#160;Souls</text><text class="terminal-1537205331-r1" x="1464" y="459.2" textLength="12.2" clip-path="url(#terminal-1537205331-line-18)">
</text><text class="terminal-1537205331-r2" x="12.2" y="483.6" textLength="671" clip-path="url(#terminal-1537205331-line-19)">Now&#160;and&#160;Then,&#160;Here&#160;and&#160;There&#160;-&#160;S01E07&#160;-&#160;Night&#160;of&#160;Flight</text><text class="terminal-1537205331-r1" x="1464" y="483.6" textLength="12.2" clip-path="url(#terminal-1537205331-line-19)">
</text><text class="terminal-1537205331-r2" x="12.2" y="508" textLength="732" clip-path="url(#terminal-1537205331-line-20)">Sound&#160;of&#160;the&#160;Sky&#160;-&#160;S01E08&#160;-&#160;Phone&#160;Duty:&#160;We&#160;Have&#160;an&#160;Emergency</text><text class="terminal-1537205331-r1" x="1464" y="508" textLength="12.2" clip-path="url(#terminal-1537205331-line-20)">
</text><text class="terminal-1537205331-r2" x="12.2" y="532.4" textLength="805.2" clip-path="url(#terminal-1537205331-line-21)">Sound&#160;of&#160;the&#160;Sky&#160;-&#160;S01E05&#160;-&#160;Mountain&#160;Hiking:&#160;The&#160;Ends&#160;of&#160;the&#160;World</text><text class="terminal-1537205331-r1" x="1464" y="532.4" textLength="12.2" clip-path="url(#terminal-1537205331-line-21)">
</text><text class="terminal-1537205331-r2" x="12.2" y="556.8" textLength="732" clip-path="url(#terminal-1537205331-line-22)">Sound&#160;of&#160;the&#160;Sky&#160;-&#160;S01E04&#160;-&#160;Rainy&#160;Season&#160;Sky:&#160;Quartz&#160;Rainbow</text><text class="terminal-1537205331-r1" x="1464" y="556.8" textLength="12.2" clip-path="url(#terminal-1537205331-line-22)">
</text><text class="terminal-1537205331-r2" x="12.2" y="581.2" textLength="549" clip-path="url(#terminal-1537205331-line-23)">Sound&#160;of&#160;the&#160;Sky&#160;-&#160;S01E12&#160;-&#160;Fill&#160;the&#160;Blue&#160;Sky</text><text class="terminal-1537205331-r1" x="1464" y="581.2" textLength="12.2" clip-path="url(#terminal-1537205331-line-23)">
</text><text class="terminal-1537205331-r2" x="12.2" y="605.6" textLength="805.2" clip-path="url(#terminal-1537205331-line-24)">Sound&#160;of&#160;the&#160;Sky&#160;-&#160;S01E09&#160;-&#160;A&#160;Typhoon&#160;Passes:&#160;Illusion&#160;and&#160;Reality</text><text class="terminal-1537205331-r1" x="1464" y="605.6" textLength="12.2" clip-path="url(#terminal-1537205331-line-24)">
</text><text class="terminal-1537205331-r2" x="12.2" y="630" textLength="841.8" clip-path="url(#terminal-1537205331-line-25)">Sound&#160;of&#160;the&#160;Sky&#160;-&#160;S01E07&#160;-&#160;Chirping&#160;Crickets:&#160;Spirits&#160;Down&#160;the&#160;River</text><text class="terminal-1537205331-r1" x="1464" y="630" textLength="12.2" clip-path="url(#terminal-1537205331-line-25)">
</text><text class="terminal-1537205331-r2" x="12.2" y="654.4" textLength="671" clip-path="url(#terminal-1537205331-line-26)">Sound&#160;of&#160;the&#160;Sky&#160;-&#160;S01E10&#160;-&#160;A&#160;Departure:&#160;The&#160;First&#160;Snow</text><text class="terminal-1537205331-r1" x="1464" y="654.4" textLength="12.2" clip-path="url(#terminal-1537205331-line-26)">
</text><text class="terminal-1537205331-r2" x="12.2" y="678.8" textLength="707.6" clip-path="url(#terminal-1537205331-line-27)">Sound&#160;of&#160;the&#160;Sky&#160;-&#160;S01E03&#160;-&#160;A&#160;Day&#160;with&#160;the&#160;Squad:&#160;Rio&#160;Runs</text><text class="terminal-1537205331-r1" x="1464" y="678.8" textLength="12.2" clip-path="url(#terminal-1537205331-line-27)">
</text><text class="terminal-1537205331-r2" x="12.2" y="703.2" textLength="671" clip-path="url(#terminal-1537205331-line-28)">Sound&#160;of&#160;the&#160;Sky&#160;-&#160;S01E02&#160;-&#160;First&#160;Battle:&#160;A&#160;Chair&#160;Story</text><text class="terminal-1537205331-r1" x="1464" y="703.2" textLength="12.2" clip-path="url(#terminal-1537205331-line-28)">
</text><text class="terminal-1537205331-r2" x="12.2" y="727.6" textLength="427" clip-path="url(#terminal-1537205331-line-29)">Sound&#160;of&#160;the&#160;Sky&#160;-&#160;Sound&#160;of&#160;the&#160;Sky</text><text class="terminal-1537205331-r1" x="1464" y="727.6" textLength="12.2" clip-path="url(#terminal-1537205331-line-29)">
</text><text class="terminal-1537205331-r2" x="12.2" y="752" textLength="841.8" clip-path="url(#terminal-1537205331-line-30)">Sound&#160;of&#160;the&#160;Sky&#160;-&#160;S01E07&#160;-&#160;Chirping&#160;Crickets:&#160;Spirits&#160;Down&#160;the&#160;River</text><text class="terminal-1537205331-r1" x="1464" y="752" textLength="12.2" clip-path="url(#terminal-1537205331-line-30)">
</text><text class="terminal-1537205331-r2" x="12.2" y="776.4" textLength="902.8" clip-path="url(#terminal-1537205331-line-31)">Sound&#160;of&#160;the&#160;Sky&#160;-&#160;S01E01&#160;-&#160;The&#160;Sound&#160;that&#160;Fills&#160;the&#160;Air:&#160;The&#160;City&#160;of&#160;Dawn</text><text class="terminal-1537205331-r1" x="1464" y="776.4" textLength="12.2" clip-path="url(#terminal-1537205331-line-31)">
</text><text class="terminal-1537205331-r2" x="12.2" y="800.8" textLength="719.8" clip-path="url(#terminal-1537205331-line-32)">Sound&#160;of&#160;the&#160;Sky&#160;-&#160;S01E06&#160;-&#160;Kanata’s&#160;Day&#160;Off:&#160;Hair&#160;Braiding</text><text class="terminal-1537205331-r1" x="1464" y="800.8" textLength="12.2" clip-path="url(#terminal-1537205331-line-32)">
</text><text class="terminal-1537205331-r2" x="12.2" y="825.2" textLength="756.4" clip-path="url(#terminal-1537205331-line-33)">Sound&#160;of&#160;the&#160;Sky&#160;-&#160;S01E11&#160;-&#160;A&#160;Visitor:&#160;A&#160;Burning&#160;Field&#160;of&#160;Snow</text><text class="terminal-1537205331-r1" x="1464" y="825.2" textLength="12.2" clip-path="url(#terminal-1537205331-line-33)">
</text><text class="terminal-1537205331-r2" x="12.2" y="849.6" textLength="561.2" clip-path="url(#terminal-1537205331-line-34)">Now&#160;and&#160;Then,&#160;Here&#160;and&#160;There&#160;-&#160;S01E05&#160;-&#160;Murder</text><text class="terminal-1537205331-r1" x="1464" y="849.6" textLength="12.2" clip-path="url(#terminal-1537205331-line-34)">
</text><text class="terminal-1537205331-r4" x="12.2" y="874" textLength="390.4" clip-path="url(#terminal-1537205331-line-35)">style:&#160;23-jbrowse-spacegrey.tcss</text>
    </g>
    </g>
</svg>
